<svg width="26" height="32" viewBox="0 0 26 32" fill="none" xmlns="http://www.w3.org/2000/svg">
<path fill-rule="evenodd" clip-rule="evenodd" d="M5.44668 1.18436C3.40418 1.83597 1.34805 2.48757 0.864661 2.6369L0 2.91519V8.90181C0 12.4856 0.0272334 15.1871 0.0680835 15.6351C0.367651 18.7709 1.72932 21.7439 4.00331 24.2145C4.52075 24.7779 12.7316 31.9116 12.9631 31.9999C13.0584 32.0338 20.2753 25.8978 21.4599 24.7711C23.5161 22.8231 25.1228 19.9723 25.6947 17.2437C25.9943 15.8048 26.0147 15.2685 25.9943 8.88824L25.9739 2.88804L21.351 1.4355C18.8115 0.641357 16.7213 -0.00345993 16.7077 0.00332642C16.7009 0.0169029 17.0822 0.770321 17.5656 1.68664L18.4438 3.34959L19.7578 3.77042C20.4795 4.0012 21.5689 4.34736 22.1816 4.53741L23.2914 4.88358L23.2641 10.3951C23.2437 15.6894 23.2369 15.9337 23.1007 16.5514C22.5833 18.8795 21.5144 20.8547 19.8736 22.5244C19.5604 22.8434 17.9672 24.2485 16.34 25.6399L15.4898 26.3704L15.4893 26.3708C14.2461 27.4388 13.2784 28.2702 13.1946 28.3482L13.0176 28.5111L9.89254 25.83C6.07305 22.5448 5.50115 21.9882 4.58883 20.59C3.88757 19.5108 3.37014 18.3501 3.05695 17.1487C2.75058 15.9269 2.72334 15.4722 2.72334 10.0285V4.89037L3.69694 4.58492C4.22799 4.41524 5.31732 4.06907 6.1139 3.81793C6.90367 3.56679 7.55727 3.33602 7.55727 3.31565C7.55727 3.29529 7.93854 2.54866 8.40832 1.65949C8.87809 0.763533 9.25936 0.0236893 9.25936 0.0101147C9.25936 -0.0294991 9.18205 -0.00489044 5.74373 1.08979L5.74288 1.09006L5.44668 1.18436ZM12.8261 0.20706C12.7741 0.310762 11.5301 2.67866 9.9144 5.75416L9.02025 7.45617L5.33012 14.4813L5.38459 15.0514C5.50714 16.2189 5.94288 17.4542 6.65094 18.5742C6.90285 18.9814 6.97775 19.0561 7.04583 18.9814C7.08668 18.9339 8.43473 16.3954 10.0415 13.341C11.6415 10.2934 12.9691 7.79555 12.9963 7.79555C13.0168 7.79555 14.3648 10.2662 15.9852 13.2799C17.6056 16.2936 18.9605 18.8117 19.0013 18.8796C19.0694 18.995 19.083 18.9882 19.1919 18.8457C19.8932 17.9294 20.4719 16.4157 20.6353 15.0786L20.717 14.3998L16.8499 7.21182C14.7257 3.26146 12.9759 0.0102196 12.9623 0.00343323C12.9555 -0.0101433 12.8942 0.0780964 12.8261 0.20706ZM9.22441 21.2212L11.0967 17.4948C12.1248 15.445 12.9758 13.7684 12.9826 13.7684C12.9962 13.7684 13.8405 15.445 14.8685 17.488L16.734 21.2076L15.0524 22.6737C14.1332 23.4814 13.2958 24.2077 13.1869 24.2892L13.003 24.4385L12.1656 23.7461C11.7095 23.366 10.8584 22.6398 10.2797 22.1375L9.22441 21.2212Z" fill="#FF4C2F"/>
</svg>
