<svg width="36" height="32" viewBox="0 0 36 32" fill="none" xmlns="http://www.w3.org/2000/svg">
<path d="M32.9094 1.00464L19.8379 10.3958L22.2551 4.85512L32.9094 1.00464Z" fill="#E2761B" stroke="#E2761B" stroke-linecap="round" stroke-linejoin="round"/>
<path d="M2.73242 1.00464L15.6988 10.4847L13.3998 4.85512L2.73242 1.00464Z" fill="#E4761B" stroke="#E4761B" stroke-linecap="round" stroke-linejoin="round"/>
<path d="M28.206 22.7732L24.7246 27.9326L32.1734 29.915L34.3147 22.8876L28.206 22.7732Z" fill="#E4761B" stroke="#E4761B" stroke-linecap="round" stroke-linejoin="round"/>
<path d="M1.35352 22.8876L3.48174 29.915L10.9305 27.9326L7.44917 22.7732L1.35352 22.8876Z" fill="#E4761B" stroke="#E4761B" stroke-linecap="round" stroke-linejoin="round"/>
<path d="M10.5093 14.0556L8.43359 17.0927L15.8298 17.4104L15.5671 9.72217L10.5093 14.0556Z" fill="#E4761B" stroke="#E4761B" stroke-linecap="round" stroke-linejoin="round"/>
<path d="M25.1322 14.0556L20.0087 9.6333L19.8379 17.4105L27.221 17.0928L25.1322 14.0556Z" fill="#E4761B" stroke="#E4761B" stroke-linecap="round" stroke-linejoin="round"/>
<path d="M10.9297 27.9327L15.3701 25.8359L11.534 22.9385L10.9297 27.9327Z" fill="#E4761B" stroke="#E4761B" stroke-linecap="round" stroke-linejoin="round"/>
<path d="M20.2715 25.8359L24.725 27.9327L24.1075 22.9385L20.2715 25.8359Z" fill="#E4761B" stroke="#E4761B" stroke-linecap="round" stroke-linejoin="round"/>
<path d="M24.725 27.9327L20.2715 25.8359L20.6262 28.6444L20.5868 29.8262L24.725 27.9327Z" fill="#D7C1B3" stroke="#D7C1B3" stroke-linecap="round" stroke-linejoin="round"/>
<path d="M10.9316 27.9327L15.0699 29.8262L15.0436 28.6444L15.372 25.8359L10.9316 27.9327Z" fill="#D7C1B3" stroke="#D7C1B3" stroke-linecap="round" stroke-linejoin="round"/>
<path d="M15.1344 21.083L11.4297 20.0282L14.044 18.8718L15.1344 21.083Z" fill="#233447" stroke="#233447" stroke-linecap="round" stroke-linejoin="round"/>
<path d="M20.5078 21.083L21.5982 18.8718L24.2256 20.0282L20.5078 21.083Z" fill="#233447" stroke="#233447" stroke-linecap="round" stroke-linejoin="round"/>
<path d="M10.9306 27.9326L11.5612 22.7732L7.44922 22.8876L10.9306 27.9326Z" fill="#CD6116" stroke="#CD6116" stroke-linecap="round" stroke-linejoin="round"/>
<path d="M24.0938 22.7732L24.7243 27.9326L28.2057 22.8876L24.0938 22.7732Z" fill="#CD6116" stroke="#CD6116" stroke-linecap="round" stroke-linejoin="round"/>
<path d="M27.221 17.0928L19.8379 17.4105L20.521 21.083L21.6114 18.8719L24.2388 20.0283L27.221 17.0928Z" fill="#CD6116" stroke="#CD6116" stroke-linecap="round" stroke-linejoin="round"/>
<path d="M11.4289 20.0283L14.0563 18.8719L15.1336 21.083L15.8298 17.4105L8.43359 17.0928L11.4289 20.0283Z" fill="#CD6116" stroke="#CD6116" stroke-linecap="round" stroke-linejoin="round"/>
<path d="M8.43555 17.0928L11.5359 22.9384L11.4308 20.0283L8.43555 17.0928Z" fill="#E4751F" stroke="#E4751F" stroke-linecap="round" stroke-linejoin="round"/>
<path d="M24.2388 20.0283L24.1074 22.9384L27.2209 17.0928L24.2388 20.0283Z" fill="#E4751F" stroke="#E4751F" stroke-linecap="round" stroke-linejoin="round"/>
<path d="M15.831 17.4104L15.1348 21.083L16.0018 25.4164L16.1989 19.7105L15.831 17.4104Z" fill="#E4751F" stroke="#E4751F" stroke-linecap="round" stroke-linejoin="round"/>
<path d="M19.8391 17.4104L19.4844 19.6978L19.642 25.4164L20.5222 21.083L19.8391 17.4104Z" fill="#E4751F" stroke="#E4751F" stroke-linecap="round" stroke-linejoin="round"/>
<path d="M20.5208 21.0831L19.6406 25.4165L20.2712 25.8358L24.1073 22.9384L24.2386 20.0283L20.5208 21.0831Z" fill="#F6851B" stroke="#F6851B" stroke-linecap="round" stroke-linejoin="round"/>
<path d="M11.4297 20.0283L11.5348 22.9384L15.3708 25.8358L16.0014 25.4165L15.1344 21.0831L11.4297 20.0283Z" fill="#F6851B" stroke="#F6851B" stroke-linecap="round" stroke-linejoin="round"/>
<path d="M20.5875 29.8261L20.6269 28.6443L20.2985 28.3647H15.3457L15.0436 28.6443L15.0699 29.8261L10.9316 27.9326L12.3767 29.0763L15.3063 31.046H20.3379L23.2806 29.0763L24.7257 27.9326L20.5875 29.8261Z" fill="#C0AD9E" stroke="#C0AD9E" stroke-linecap="round" stroke-linejoin="round"/>
<path d="M20.2716 25.8359L19.641 25.4165H16.002L15.3714 25.8359L15.043 28.6443L15.3451 28.3647H20.2978L20.6263 28.6443L20.2716 25.8359Z" fill="#161616" stroke="#161616" stroke-linecap="round" stroke-linejoin="round"/>
<path d="M33.4612 11.0057L34.5779 5.82092L32.9095 1.00464L20.2715 10.0781L25.1322 14.0556L32.003 15.9999L33.5269 14.2844L32.8701 13.8269L33.921 12.8992L33.1065 12.2892L34.1575 11.514L33.4612 11.0057Z" fill="#763D16" stroke="#763D16" stroke-linecap="round" stroke-linejoin="round"/>
<path d="M1.07812 5.82092L2.19479 11.0057L1.48538 11.514L2.53635 12.2892L1.73498 12.8992L2.78596 13.8269L2.1291 14.2844L3.63988 15.9999L10.5106 14.0556L15.3714 10.0781L2.73341 1.00464L1.07812 5.82092Z" fill="#763D16" stroke="#763D16" stroke-linecap="round" stroke-linejoin="round"/>
<path d="M32.0029 16L25.1321 14.0557L27.2209 17.0928L24.1074 22.9385L28.2062 22.8876H34.315L32.0029 16Z" fill="#F6851B" stroke="#F6851B" stroke-linecap="round" stroke-linejoin="round"/>
<path d="M10.5101 14.0557L3.63939 16L1.35352 22.8876H7.44917L11.5348 22.9385L8.43446 17.0928L10.5101 14.0557Z" fill="#F6851B" stroke="#F6851B" stroke-linecap="round" stroke-linejoin="round"/>
<path d="M19.8376 17.4106L20.2711 10.0782L22.268 4.85522H13.4004L15.371 10.0782L15.8308 17.4106L15.9884 19.7234L16.0016 25.4166H19.6406L19.6668 19.7234L19.8376 17.4106Z" fill="#F6851B" stroke="#F6851B" stroke-linecap="round" stroke-linejoin="round"/>
</svg>
