<svg width="22" height="32" viewBox="0 0 22 32" fill="none" xmlns="http://www.w3.org/2000/svg">
<path d="M0.320312 18.3937L1.107 18.0603L10.8459 13.9326L21.3715 18.3937L17.4165 26.3537L7.74811 27.687L0.478657 20.0379L0.320312 18.3937Z" fill="#133444"/>
<path d="M19.1817 13.485C17.4437 11.4445 14.9816 10.1167 12.2851 9.76572C12.2275 9.75777 12.1699 9.75075 12.1123 9.74467C11.2707 9.64924 10.4205 9.64924 9.57884 9.74467C9.52126 9.75122 9.46368 9.75824 9.4061 9.76572C6.70963 10.1167 4.24748 11.4445 2.50947 13.485L2.07186 14.1924L1.34276 15.3685L0.809425 16.2324C0.799348 16.2555 0.789272 16.2794 0.779915 16.3026L0.773438 16.3187L1.95023 16.9973L9.40681 21.2977L10.8463 22.1278V11.8492L9.40681 12.4864V10.9475L10.8463 10.3096L12.2858 10.9475L19.62 14.1952L19.1817 13.485Z" fill="#C42370"/>
<path d="M21.6918 20.9517C21.6918 24.3749 20.0234 27.5777 17.4366 29.6422C16.4195 30.4586 15.2573 31.0858 14.0077 31.4927C12.9879 31.8227 11.9204 31.991 10.8459 31.991C4.85615 31.991 3.64398e-06 26.7917 3.64398e-06 20.9517C-0.000721699 20.0895 0.106841 19.2305 0.320295 18.3938L10.8459 24.4647L21.3715 18.3938C21.5849 19.2305 21.6925 20.0895 21.6918 20.9517Z" fill="#1C4D6B"/>
<path d="M9.57899 9.74666L10.8457 10.3074L9.40625 10.9453V9.67017L9.57899 9.74666Z" fill="black"/>
<path d="M9.40625 12.4863L10.8457 11.8491V22.1319L9.40625 21.3018V12.4863Z" fill="black"/>
<path d="M10.8457 11.8491V22.1319L20.9315 16.3151L10.8457 11.8491Z" fill="#1D4259"/>
<path d="M10.8457 0V11.8491L20.9315 16.3151L10.8457 0Z" fill="#4B6B9A"/>
<path d="M10.8456 11.849V22.1318L9.4061 21.3017L0.772721 16.3192L0.759766 16.3115L0.779199 16.3031C0.788556 16.2799 0.798632 16.256 0.808709 16.2329L2.07043 14.1915L9.4061 10.9473V12.4911L10.8456 11.849Z" fill="#343535"/>
<path d="M10.8456 11.8491V22.1319L9.4061 21.3018L0.772721 16.3228L0.759766 16.3151L0.779199 16.3067L9.4061 12.4863L10.8456 11.8491Z" fill="#3E5578"/>
<path d="M10.8456 0V11.8491L0.759766 16.3151L10.8456 0Z" fill="#6DB2D8"/>
<path d="M6.76562 31.1821C6.91605 31.2844 7.06864 31.381 7.22195 31.4721C7.06552 31.381 6.91341 31.2844 6.76562 31.1821Z" fill="#335F8A"/>
<path d="M7.21875 31.4722C7.37278 31.5633 7.52752 31.6488 7.68443 31.7288C7.52752 31.6496 7.3723 31.564 7.21875 31.4722Z" fill="#335F8A"/>
<path d="M8.08398 31.9199C8.20346 31.9721 8.32366 32.0221 8.44386 32.0677C8.32342 32.0218 8.20346 31.9725 8.08398 31.9199Z" fill="#335F8A"/>
<path d="M0.320295 18.3938L10.8459 24.4647C10.7053 25.3885 10.4524 26.2926 10.0923 27.158C9.25021 29.1426 7.54873 31.2415 4.2566 29.645C1.66838 27.5791 3.64398e-06 24.3749 3.64398e-06 20.9517C-0.000721699 20.0895 0.106841 19.2305 0.320295 18.3938Z" fill="#6DB2D8"/>
<path d="M17.4357 29.6429L17.4098 29.6633C17.3551 29.7068 17.3004 29.7496 17.2449 29.7917L17.2306 29.8029C17.1706 29.8497 17.1101 29.8946 17.0492 29.9376C16.9837 29.9854 16.9175 30.0331 16.8505 30.078C16.7836 30.1229 16.7167 30.1699 16.649 30.2148C16.5813 30.2597 16.5295 30.2934 16.4698 30.3313L16.4367 30.3524C16.3733 30.3924 16.31 30.4317 16.2467 30.4696C16.2391 30.4748 16.2312 30.4795 16.2229 30.4836C16.1574 30.5236 16.0919 30.5622 16.0257 30.5994C15.9595 30.6366 15.8817 30.6801 15.8098 30.7187C15.7378 30.7573 15.6658 30.7945 15.5938 30.831L15.5859 30.8352C15.514 30.8717 15.442 30.9054 15.37 30.9419C15.298 30.9783 15.2261 31.012 15.1483 31.0464C15.0706 31.0808 14.9986 31.1166 14.9238 31.1461C14.7733 31.2106 14.6207 31.2717 14.4674 31.3292C14.3141 31.3868 14.1587 31.4408 14.0018 31.4913C13.9391 31.5117 13.8765 31.5313 13.8132 31.5503C13.7499 31.5692 13.6692 31.5924 13.6009 31.612C13.4814 31.645 13.3612 31.6766 13.241 31.7054C13.1956 31.7166 13.1496 31.7271 13.1035 31.7369L13.0265 31.7545C12.9624 31.7685 12.8984 31.7819 12.8336 31.7945C12.7688 31.8071 12.7156 31.8176 12.6558 31.8282C12.5961 31.8387 12.5472 31.8478 12.4925 31.8562C12.4378 31.8647 12.3715 31.8752 12.3111 31.8836C12.2816 31.8885 12.2521 31.8927 12.2218 31.8962L12.0858 31.9138L12.0102 31.9229C11.9606 31.9292 11.9102 31.9341 11.8598 31.939C11.7979 31.9454 11.7367 31.951 11.6748 31.9559C11.6266 31.9594 11.5784 31.9636 11.5309 31.9664C11.4834 31.9692 11.4474 31.972 11.4049 31.9734H11.3992C11.3502 31.9734 11.3013 31.979 11.2552 31.9804C11.1875 31.9804 11.1192 31.9854 11.0508 31.9868C10.9824 31.9882 10.914 31.9868 10.8449 31.9868C10.7759 31.9868 10.7075 31.9868 10.6391 31.9868C10.5707 31.9868 10.5023 31.9868 10.4347 31.9804C10.385 31.9804 10.3361 31.9762 10.2871 31.9734H10.2814C10.2389 31.9734 10.1972 31.9692 10.1554 31.9664C10.1137 31.9636 10.059 31.9594 10.0115 31.9559C9.94958 31.951 9.8884 31.9454 9.8265 31.939C9.77612 31.9341 9.72574 31.9292 9.67608 31.9229L9.6041 31.9138C9.55876 31.9089 9.51341 31.9026 9.46807 31.8962C9.43784 31.8962 9.40833 31.8885 9.37882 31.8836C9.31788 31.8752 9.25742 31.8661 9.19744 31.8562C9.14274 31.8478 9.08804 31.838 9.03406 31.8282C8.98008 31.8183 8.9153 31.8064 8.85628 31.7945C8.79726 31.7826 8.72745 31.7685 8.66339 31.7545L8.58638 31.7369C8.54031 31.7271 8.49425 31.7166 8.44891 31.7054C8.32799 31.6766 8.20779 31.645 8.08903 31.612L7.87311 31.5503C7.80977 31.5313 7.74715 31.5117 7.68453 31.4913C7.52763 31.4408 7.37288 31.3868 7.21886 31.3292C7.06483 31.2717 6.91008 31.212 6.76613 31.1475C6.69416 31.1152 6.61643 31.0815 6.54157 31.0478C6.46672 31.0141 6.39331 30.9776 6.31989 30.9433C6.24648 30.9089 6.17594 30.8731 6.10397 30.8366L6.09605 30.8324C6.02407 30.7959 5.9521 30.758 5.88013 30.7201C5.80815 30.6822 5.73618 30.6415 5.6642 30.6008C5.59223 30.5601 5.53537 30.5264 5.47059 30.485L5.44684 30.471C5.3835 30.4331 5.32016 30.3938 5.25682 30.3538L5.22371 30.3327C5.16398 30.2948 5.10352 30.2555 5.0445 30.2162C4.98548 30.1769 4.90918 30.1257 4.84297 30.0794C4.77675 30.0331 4.70981 29.9854 4.64432 29.939C4.57882 29.8927 4.52268 29.8499 4.46294 29.8043L4.44855 29.7931C4.39313 29.751 4.33842 29.7082 4.28372 29.6647L4.25781 29.6443C7.54994 31.2408 9.25143 29.1419 10.0935 27.1573C10.4534 26.2926 10.7064 25.3891 10.8471 24.4661C10.9875 25.3893 11.2403 26.293 11.6 27.158C12.4421 29.1404 14.1436 31.2394 17.4357 29.6429Z" fill="#529BBA"/>
<path d="M13.2441 31.7133C13.3651 31.6825 13.4853 31.6486 13.604 31.6133C13.4869 31.6494 13.367 31.6827 13.2441 31.7133Z" fill="#335F8A"/>
<path d="M14.0078 31.4927C14.1647 31.4421 14.3195 31.3881 14.4735 31.3306C14.3204 31.3886 14.1652 31.4426 14.0078 31.4927Z" fill="#335F8A"/>
<path d="M14.4727 31.3306C14.626 31.2731 14.7785 31.212 14.929 31.1475C14.7788 31.212 14.6267 31.2731 14.4727 31.3306Z" fill="#335F8A"/>
<path d="M21.6916 20.9517C21.6916 24.3749 20.0225 27.5784 17.435 29.6429C14.1429 31.2394 12.4414 29.1405 11.5993 27.1559C11.2394 26.2912 10.9864 25.3877 10.8457 24.4647L21.3713 18.3938C21.5848 19.2305 21.6923 20.0895 21.6916 20.9517Z" fill="#4B6B9A"/>
</svg>
