<svg width="22" height="32" viewBox="0 0 22 32" fill="none" xmlns="http://www.w3.org/2000/svg">
<path d="M11.0177 0C6.63274 0 3.08407 3.5526 3.08407 7.94241V10.9192C1.54425 11.1982 0 11.5703 0 12.0532V27.588C0 27.588 0 28.0177 0.482301 28.2215C2.23009 28.9302 9.10619 31.3666 10.6858 31.9247C10.8894 32 10.9469 32 11 32C11.0752 32 11.1106 32 11.3142 31.9247C12.8938 31.3666 19.7876 28.9302 21.5354 28.2215C21.9823 28.0354 22 27.6058 22 27.6058V12.0532C22 11.5703 20.4779 11.1805 18.9336 10.9192V7.94241C18.9558 3.5526 15.385 0 11.0177 0ZM11.0177 3.79623C13.6018 3.79623 15.1637 5.35991 15.1637 7.94684V10.5338C12.2655 10.33 9.79204 10.33 6.87611 10.5338V7.94684C6.87611 5.35548 8.43805 3.79623 11.0177 3.79623ZM11 14.3433C14.6062 14.3433 17.6327 14.6224 17.6327 15.1229V24.8151C17.6327 24.9657 17.615 24.9834 17.4823 25.0365C17.354 25.0941 11.3319 27.2691 11.3319 27.2691C11.3319 27.2691 11.0885 27.3444 11.0177 27.3444C10.9425 27.3444 10.7035 27.2514 10.7035 27.2514C10.7035 27.2514 4.68142 25.0764 4.5531 25.0188C4.42478 24.9612 4.40265 24.9435 4.40265 24.7973V15.1052C4.36726 14.6047 7.39381 14.3433 11 14.3433Z" fill="current"/>
</svg>
