<svg width="20" height="20" viewBox="0 0 20 20" fill="none" xmlns="http://www.w3.org/2000/svg">
<path d="M20 10C20 15.5229 15.5229 20 10 20C4.47714 20 0 15.5229 0 10C0 4.47714 4.47714 0 10 0C15.5229 0 20 4.47714 20 10ZM18.5714 10C18.5714 5.26643 14.7336 1.42857 10 1.42857C5.26643 1.42857 1.42857 5.26643 1.42857 10C1.42857 14.7336 5.26643 18.5714 10 18.5714C14.7336 18.5714 18.5714 14.7336 18.5714 10Z" fill="#FC7823"/>
<path d="M13.5715 9.28577H9.28578H6.42864C6.2392 9.28577 6.05752 9.36102 5.92356 9.49498C5.78961 9.62893 5.71436 9.81061 5.71436 10.0001C5.71436 10.1895 5.78961 10.3712 5.92356 10.5051C6.05752 10.6391 6.2392 10.7143 6.42864 10.7143H9.28578H13.5715C13.7609 10.7143 13.9426 10.6391 14.0766 10.5051C14.2105 10.3712 14.2858 10.1895 14.2858 10.0001C14.2858 9.81061 14.2105 9.62893 14.0766 9.49498C13.9426 9.36102 13.7609 9.28577 13.5715 9.28577Z" fill="#FC7823"/>
</svg>