<svg width="20" height="20" viewBox="0 0 20 20" fill="none" xmlns="http://www.w3.org/2000/svg">
<path d="M9.28571 6.42857C9.28571 6.23913 9.36097 6.05745 9.49492 5.9235C9.62888 5.78954 9.81056 5.71429 10 5.71429C10.1894 5.71429 10.3711 5.78954 10.5051 5.9235C10.639 6.05745 10.7143 6.23913 10.7143 6.42857V9.28571H13.5714C13.7609 9.28571 13.9426 9.36097 14.0765 9.49492C14.2105 9.62888 14.2857 9.81056 14.2857 10C14.2857 10.1894 14.2105 10.3711 14.0765 10.5051C13.9426 10.639 13.7609 10.7143 13.5714 10.7143H10.7143V13.5714C10.7143 13.7609 10.639 13.9426 10.5051 14.0765C10.3711 14.2105 10.1894 14.2857 10 14.2857C9.81056 14.2857 9.62888 14.2105 9.49492 14.0765C9.36097 13.9426 9.28571 13.7609 9.28571 13.5714V10.7143H6.42857C6.23913 10.7143 6.05745 10.639 5.9235 10.5051C5.78954 10.3711 5.71429 10.1894 5.71429 10C5.71429 9.81056 5.78954 9.62888 5.9235 9.49492C6.05745 9.36097 6.23913 9.28571 6.42857 9.28571H9.28571V6.42857ZM20 10C20 15.5229 15.5229 20 10 20C4.47714 20 0 15.5229 0 10C0 4.47714 4.47714 0 10 0C15.5229 0 20 4.47714 20 10ZM18.5714 10C18.5714 5.26643 14.7336 1.42857 10 1.42857C5.26643 1.42857 1.42857 5.26643 1.42857 10C1.42857 14.7336 5.26643 18.5714 10 18.5714C14.7336 18.5714 18.5714 14.7336 18.5714 10Z" fill="#00C2FF"/>
</svg>
