<svg width="109" height="19" viewBox="0 0 109 19" fill="none" xmlns="http://www.w3.org/2000/svg">
<path d="M9.666 14L8.577 10.859H2.817L1.737 14H0.36L4.824 1.04H6.579L11.043 14H9.666ZM3.249 9.617H8.145L5.688 2.534L3.249 9.617ZM14.6122 4.919C14.8822 4.679 15.2032 4.499 15.5752 4.379C15.9532 4.259 16.3342 4.199 16.7182 4.199C16.9762 4.199 17.2192 4.226 17.4472 4.28V5.522C17.1892 5.462 16.9402 5.432 16.7002 5.432C16.0762 5.432 15.5512 5.609 15.1252 5.963C14.6812 6.311 14.3812 6.755 14.2252 7.295C14.0692 7.835 13.9912 8.453 13.9912 9.149V14H12.6682V4.28H13.8562V5.819C14.0662 5.447 14.3182 5.147 14.6122 4.919ZM26.174 5.954C26.366 6.422 26.462 7.091 26.462 7.961V14H25.283V12.389C24.905 13.007 24.401 13.475 23.771 13.793C23.141 14.111 22.412 14.27 21.584 14.27C20.876 14.27 20.27 14.141 19.766 13.883C19.268 13.625 18.893 13.277 18.641 12.839C18.389 12.401 18.263 11.918 18.263 11.39C18.263 10.634 18.482 10.025 18.92 9.563C19.358 9.101 19.964 8.768 20.738 8.564C21.212 8.45 21.74 8.348 22.322 8.258C22.91 8.168 23.588 8.072 24.356 7.97L25.166 7.862C25.154 6.968 24.944 6.311 24.536 5.891C24.134 5.471 23.48 5.261 22.574 5.261C21.89 5.261 21.32 5.414 20.864 5.72C20.414 6.026 20.099 6.497 19.919 7.133L18.632 6.755C18.86 5.879 19.31 5.204 19.982 4.73C20.66 4.25 21.53 4.01 22.592 4.01C23.48 4.01 24.233 4.178 24.851 4.514C25.475 4.85 25.916 5.33 26.174 5.954ZM21.737 13.127C22.337 13.127 22.871 13.019 23.339 12.803C23.807 12.581 24.182 12.278 24.464 11.894C24.752 11.504 24.938 11.063 25.022 10.571C25.106 10.199 25.148 9.683 25.148 9.023C24.914 9.047 24.746 9.068 24.644 9.086C23.828 9.182 23.165 9.269 22.655 9.347C22.145 9.419 21.683 9.512 21.269 9.626C20.147 9.956 19.586 10.544 19.586 11.39C19.586 11.69 19.658 11.972 19.802 12.236C19.952 12.5 20.189 12.716 20.513 12.884C20.837 13.046 21.245 13.127 21.737 13.127ZM36.9409 4.28V13.865C36.9409 14.459 36.9049 14.975 36.8329 15.413C36.4909 17.531 35.1019 18.59 32.6659 18.59C31.8679 18.59 31.1269 18.413 30.4429 18.059C29.7649 17.705 29.2279 17.168 28.8319 16.448L30.0289 15.782C30.2809 16.292 30.6439 16.673 31.1179 16.925C31.5979 17.177 32.1139 17.303 32.6659 17.303C33.6979 17.303 34.4479 17.018 34.9159 16.448C35.3839 15.878 35.6149 15.011 35.6089 13.847V12.848C35.2489 13.304 34.8139 13.655 34.3039 13.901C33.7939 14.147 33.2179 14.27 32.5759 14.27C31.6879 14.27 30.9169 14.048 30.2629 13.604C29.6149 13.16 29.1199 12.548 28.7779 11.768C28.4359 10.988 28.2649 10.109 28.2649 9.131C28.2649 8.159 28.4359 7.286 28.7779 6.512C29.1199 5.732 29.6119 5.12 30.2539 4.676C30.9019 4.232 31.6579 4.01 32.5219 4.01C33.2239 4.01 33.8479 4.151 34.3939 4.433C34.9399 4.709 35.3959 5.105 35.7619 5.621V4.28H36.9409ZM32.7109 13.037C33.3829 13.037 33.9469 12.872 34.4029 12.542C34.8589 12.206 35.1979 11.747 35.4199 11.165C35.6479 10.577 35.7619 9.899 35.7619 9.131C35.7619 8.357 35.6479 7.679 35.4199 7.097C35.1979 6.509 34.8589 6.053 34.4029 5.729C33.9529 5.405 33.3979 5.243 32.7379 5.243C32.0659 5.243 31.4989 5.411 31.0369 5.747C30.5749 6.083 30.2299 6.545 30.0019 7.133C29.7799 7.715 29.6689 8.381 29.6689 9.131C29.6689 9.881 29.7829 10.553 30.0109 11.147C30.2449 11.735 30.5899 12.197 31.0459 12.533C31.5019 12.869 32.0569 13.037 32.7109 13.037ZM43.5163 14.27C42.5683 14.27 41.7463 14.054 41.0503 13.622C40.3603 13.184 39.8323 12.578 39.4663 11.804C39.1003 11.03 38.9173 10.139 38.9173 9.131C38.9173 8.117 39.1033 7.223 39.4753 6.449C39.8473 5.675 40.3783 5.075 41.0683 4.649C41.7643 4.223 42.5803 4.01 43.5163 4.01C44.4703 4.01 45.2923 4.226 45.9823 4.658C46.6783 5.09 47.2093 5.693 47.5753 6.467C47.9413 7.241 48.1243 8.129 48.1243 9.131C48.1243 10.151 47.9383 11.048 47.5663 11.822C47.2003 12.596 46.6693 13.199 45.9733 13.631C45.2833 14.057 44.4643 14.27 43.5163 14.27ZM43.5163 13.001C44.2183 13.001 44.8093 12.842 45.2893 12.524C45.7693 12.2 46.1263 11.75 46.3603 11.174C46.6003 10.592 46.7203 9.911 46.7203 9.131C46.7203 7.931 46.4473 6.989 45.9013 6.305C45.3613 5.621 44.5663 5.279 43.5163 5.279C42.4603 5.279 41.6623 5.627 41.1223 6.323C40.5883 7.013 40.3213 7.949 40.3213 9.131C40.3213 9.917 40.4413 10.601 40.6813 11.183C40.9273 11.765 41.2873 12.215 41.7613 12.533C42.2413 12.845 42.8263 13.001 43.5163 13.001ZM54.5646 4.037C55.4826 4.037 56.2326 4.259 56.8146 4.703C57.3966 5.147 57.8166 5.72 58.0746 6.422C58.3326 7.118 58.4616 7.862 58.4616 8.654V14H57.1296V9.041C57.1296 7.895 56.9016 6.986 56.4456 6.314C55.9896 5.636 55.2786 5.297 54.3126 5.297C53.3886 5.297 52.6776 5.606 52.1796 6.224C51.6816 6.842 51.4326 7.706 51.4326 8.816V14H50.1006V4.28H51.2976V5.63C51.6576 5.108 52.1166 4.712 52.6746 4.442C53.2326 4.172 53.8626 4.037 54.5646 4.037Z" fill="#7483B2"/>
<path d="M63.2306 1.04H64.8956L68.6666 12.299L72.4736 1.04H74.1386L69.8006 14H67.5686L63.2306 1.04ZM78.5602 14.27C77.6062 14.27 76.7752 14.054 76.0672 13.622C75.3652 13.184 74.8252 12.578 74.4472 11.804C74.0692 11.024 73.8802 10.133 73.8802 9.131C73.8802 8.123 74.0722 7.232 74.4562 6.458C74.8402 5.684 75.3862 5.084 76.0942 4.658C76.8022 4.226 77.6242 4.01 78.5602 4.01C79.5142 4.01 80.3452 4.226 81.0532 4.658C81.7612 5.09 82.3042 5.693 82.6822 6.467C83.0602 7.241 83.2492 8.129 83.2492 9.131C83.2492 10.145 83.0572 11.042 82.6732 11.822C82.2952 12.596 81.7522 13.199 81.0442 13.631C80.3362 14.057 79.5082 14.27 78.5602 14.27ZM78.5602 12.749C79.5382 12.749 80.2792 12.425 80.7832 11.777C81.2932 11.123 81.5482 10.241 81.5482 9.131C81.5482 8.009 81.2932 7.13 80.7832 6.494C80.2732 5.852 79.5322 5.531 78.5602 5.531C77.5762 5.531 76.8322 5.855 76.3282 6.503C75.8302 7.151 75.5812 8.027 75.5812 9.131C75.5812 10.253 75.8362 11.138 76.3462 11.786C76.8622 12.428 77.6002 12.749 78.5602 12.749ZM85.4107 0.905H87.0127V2.561H85.4107V0.905ZM85.4107 4.28H87.0127V14H85.4107V4.28ZM93.8081 14.27C92.8421 14.27 92.0111 14.054 91.3151 13.622C90.6251 13.184 90.0971 12.578 89.7311 11.804C89.3711 11.03 89.1851 10.142 89.1731 9.14C89.1851 8.126 89.3741 7.232 89.7401 6.458C90.1121 5.684 90.6461 5.084 91.3421 4.658C92.0381 4.226 92.8661 4.01 93.8261 4.01C94.5041 4.01 95.1251 4.124 95.6891 4.352C96.2531 4.58 96.7301 4.907 97.1201 5.333C97.5161 5.759 97.7981 6.26 97.9661 6.836L96.3821 7.313C96.1781 6.755 95.8451 6.32 95.3831 6.008C94.9271 5.69 94.4021 5.531 93.8081 5.531C92.8421 5.531 92.1131 5.858 91.6211 6.512C91.1351 7.166 90.8861 8.042 90.8741 9.14C90.8861 10.256 91.1411 11.138 91.6391 11.786C92.1431 12.428 92.8661 12.749 93.8081 12.749C95.0501 12.749 95.8961 12.182 96.3461 11.048L97.9661 11.471C97.6241 12.377 97.0961 13.07 96.3821 13.55C95.6681 14.03 94.8101 14.27 93.8081 14.27ZM100.718 9.59C100.784 10.604 101.069 11.384 101.573 11.93C102.083 12.476 102.785 12.749 103.679 12.749C104.315 12.749 104.87 12.602 105.344 12.308C105.824 12.014 106.199 11.591 106.469 11.039L108.008 11.57C107.63 12.422 107.063 13.085 106.307 13.559C105.551 14.033 104.699 14.27 103.751 14.27C102.803 14.27 101.969 14.06 101.249 13.64C100.535 13.22 99.9803 12.626 99.5843 11.858C99.1943 11.09 98.9993 10.205 98.9993 9.203C98.9993 8.153 99.1913 7.238 99.5753 6.458C99.9653 5.672 100.511 5.069 101.213 4.649C101.921 4.223 102.743 4.01 103.679 4.01C104.609 4.01 105.41 4.22 106.082 4.64C106.76 5.054 107.279 5.651 107.639 6.431C107.999 7.205 108.179 8.126 108.179 9.194C108.179 9.368 108.176 9.5 108.17 9.59H100.718ZM103.733 5.45C102.863 5.45 102.176 5.693 101.672 6.179C101.168 6.665 100.859 7.373 100.745 8.303H106.505C106.307 6.401 105.383 5.45 103.733 5.45Z" fill="black"/>
</svg>
