<svg width="154" height="42" viewBox="0 0 154 42" fill="none" xmlns="http://www.w3.org/2000/svg">
<ellipse cx="20.7033" cy="20.7083" rx="20.7033" ry="20.7083" fill="url(#paint0_linear)" fill-opacity="0.05"/>
<path d="M36.8828 19.339C37.0264 16.3553 34.943 14.376 32.5918 13.0171L31.0635 21.9978C32.1215 21.9387 32.6388 22.3405 32.8269 22.5295C33.062 22.7659 33.6498 23.4749 32.9445 24.5974C34.414 24.3611 36.7093 22.9431 36.8828 19.339Z" fill="url(#paint1_linear)"/>
<path fill-rule="evenodd" clip-rule="evenodd" d="M16.835 8.88318L15.0128 7.05159C17.7559 6.71678 24.9938 7.14612 32.0005 11.5419C32.118 12.0146 32.0005 12.7236 32.0005 12.7236L32.5883 13.019C33.0977 13.7477 33.9637 15.8196 33.3524 18.2774C32.7411 20.7353 31.687 21.7831 31.2363 21.9997C30.2958 21.9997 28.697 22.5433 28.1797 24.9539C27.6624 27.3645 26.671 27.8883 26.2399 27.849L15.8945 27.9671L9.07593 23.9494L8.07666 15.6187L10.0164 13.019L13.4845 10.183L15.9533 9.17859L16.835 8.88318ZM29.0534 12.3245C28.5972 12.7998 28.1706 13.0278 28.0489 13.0897C25.385 12.5229 24.4253 11.1445 24.4253 11.1445C26.938 11.1289 29.2058 11.7267 30.8651 12.738C30.8651 12.738 29.9669 12.4468 29.0534 12.3245Z" fill="url(#paint2_linear)"/>
<path fill-rule="evenodd" clip-rule="evenodd" d="M28.0888 24.9547C26.2627 25.851 24.0976 26.37 21.7762 26.37C15.251 26.37 9.96129 22.2698 9.96129 17.2121C9.96129 13.4755 12.8483 10.2617 16.9876 8.83752C9.11587 9.29054 2.79004 15.6156 2.79004 23.4202C2.79004 32.4271 10.8167 39.8692 20.7182 39.8692C28.1119 39.8692 34.2663 35.5814 37.4844 29.8447C33.0566 30.8407 27.8152 28.9472 28.0888 24.9547Z" fill="url(#paint3_linear)"/>
<path fill-rule="evenodd" clip-rule="evenodd" d="M81.4155 14.1971C80.4043 13.1919 78.8538 12.5979 76.8763 12.5979H69.8653V28.5896H72.6293L72.6288 23.6648L72.6267 23.666V20.0997L72.6288 20.1L72.6293 15.1566H76.6516C78.6947 15.1566 79.8818 16.049 79.9095 17.7457L79.91 17.8523L79.908 17.9635C79.8524 19.5434 78.6066 20.5252 76.6741 20.5252L75.4847 20.5247L74.061 23.0149L76.0898 23.0154L79.9549 28.5896H83.2357L78.9886 22.5356L79.1299 22.4926C81.2116 21.8343 82.6858 20.2972 82.7183 17.7777L82.7189 17.6467C82.7189 16.2532 82.247 15.088 81.4155 14.1971ZM117.428 14.7331C115.813 13.3622 114.108 12.598 111.395 12.598C106.692 12.598 103.371 16.2482 103.299 20.5905L103.298 20.7789C103.298 25.3638 106.528 28.8698 111.439 28.8698C114.22 28.8698 116.418 27.7461 117.988 26.4201V19.8125L115.319 22.2397V25.1615C114.355 25.8807 113.032 26.3526 111.529 26.3526C108.369 26.3526 106.254 24.0399 106.193 20.8762L106.191 20.689C106.191 17.6773 108.412 15.1602 111.282 15.1602C113.256 15.1602 114.467 15.7895 115.678 16.8233L117.428 14.7331ZM137.343 20.689C137.343 16.2614 133.978 12.598 129.156 12.598C124.386 12.598 120.999 16.2491 120.927 20.5921L120.925 20.7789C120.925 25.2064 124.29 28.8698 129.112 28.8698C133.882 28.8698 137.269 25.2188 137.341 20.8758L137.343 20.689ZM66.5378 28.6001L59.6301 12.7553H57.0733L50.1655 28.6001L52.9236 28.6L58.3068 16.0592L63.7296 28.6L66.5378 28.6001ZM102.117 28.6001L95.2096 12.7553H92.6529L85.7451 28.6001L88.5032 28.6L93.8864 16.0592L99.3092 28.6L102.117 28.6001ZM151.286 23.7456L142.876 12.8677H140.319V28.6001H143.033V17.4076L151.69 28.6001H154V12.8677H151.286V23.7456ZM123.819 20.689C123.819 17.6324 125.994 15.1602 129.112 15.1602C132.205 15.1602 134.385 17.6039 134.448 20.5994L134.449 20.7789C134.449 23.8355 132.274 26.3077 129.156 26.3077C126.063 26.3077 123.883 23.864 123.82 20.8684L123.819 20.689Z" fill="url(#paint4_linear)"/>
<defs>
<linearGradient id="paint0_linear" x1="20.7033" y1="14.4922" x2="20.7033" y2="41.9611" gradientUnits="userSpaceOnUse">
<stop stop-color="#01E8F8"/>
<stop offset="1" stop-color="#01E8F8" stop-opacity="0"/>
</linearGradient>
<linearGradient id="paint1_linear" x1="34.0016" y1="16.2925" x2="34.7878" y2="26.4381" gradientUnits="userSpaceOnUse">
<stop stop-color="#01E8F7"/>
<stop offset="1" stop-color="#00C2FF"/>
</linearGradient>
<linearGradient id="paint2_linear" x1="16.3228" y1="9.21531" x2="26.992" y2="26.1444" gradientUnits="userSpaceOnUse">
<stop stop-color="#01E8F7"/>
<stop offset="1" stop-color="#00B3EC"/>
</linearGradient>
<linearGradient id="paint3_linear" x1="20.2856" y1="17.6145" x2="21.2383" y2="44.9316" gradientUnits="userSpaceOnUse">
<stop stop-color="#01E8F7"/>
<stop offset="1" stop-color="#00C2FF"/>
</linearGradient>
<linearGradient id="paint4_linear" x1="21.7032" y1="6.56857" x2="41.9066" y2="68.4296" gradientUnits="userSpaceOnUse">
<stop stop-color="#01E8F7"/>
<stop offset="1" stop-color="#00B3EC"/>
</linearGradient>
</defs>
</svg>
