<svg width="1248" height="335" viewBox="0 0 1248 335" fill="none" xmlns="http://www.w3.org/2000/svg">
<mask id="mask0" mask-type="alpha" maskUnits="userSpaceOnUse" x="0" y="0" width="1248" height="335">
<rect width="1248" height="335" fill="url(#paint0_linear)"/>
</mask>
<g mask="url(#mask0)">
<rect y="-89.9999" width="1249" height="530" fill="url(#paint1_linear)"/>
<mask id="mask1" mask-type="alpha" maskUnits="userSpaceOnUse" x="0" y="-90" width="1249" height="530">
<rect y="-89.9999" width="1249" height="530" fill="url(#paint2_linear)"/>
</mask>
<g mask="url(#mask1)">
<g opacity="0.5">
<g style="mix-blend-mode:overlay" opacity="0.5">
<path fill-rule="evenodd" clip-rule="evenodd" d="M909 122H1128V-145H909V122Z" fill="url(#paint3_linear)"/>
<path fill-rule="evenodd" clip-rule="evenodd" d="M799 122.991H1018V-146.467H799V122.991Z" fill="url(#paint4_linear)"/>
<path fill-rule="evenodd" clip-rule="evenodd" d="M580 122H799V-146.467H580V122Z" fill="url(#paint5_linear)"/>
<path fill-rule="evenodd" clip-rule="evenodd" d="M360 229.981H580V-146.467H360V229.981Z" fill="url(#paint6_linear)"/>
<path fill-rule="evenodd" clip-rule="evenodd" d="M361 -84C118.493 -83.7196 -78 109.196 -78 347.138C-78 347.403 -77.9921 347.66 -77.9921 347.925H361V-84Z" fill="url(#paint7_linear)"/>
<path fill-rule="evenodd" clip-rule="evenodd" d="M361 -9.70093C160.24 -9.42114 -3 150.538 -3 347.14C-3 347.404 -2.98417 347.661 -2.98417 347.925H361V-9.70093Z" fill="url(#paint8_linear)"/>
<path fill-rule="evenodd" clip-rule="evenodd" d="M361 63.6075C201.594 63.8795 72 190.962 72 347.14C72 347.404 72.0235 347.661 72.0235 347.925H361V63.6075Z" fill="url(#paint9_linear)"/>
<path fill-rule="evenodd" clip-rule="evenodd" d="M361 136.916C242.956 137.188 147 231.387 147 347.14C147 347.404 147.024 347.661 147.024 347.925H361V136.916Z" fill="url(#paint10_linear)"/>
<path fill-rule="evenodd" clip-rule="evenodd" d="M361 210.224C283.753 210.497 221 271.804 221 347.139C221 347.404 221.016 347.661 221.016 347.925H361V210.224Z" fill="url(#paint11_linear)"/>
<path fill-rule="evenodd" clip-rule="evenodd" d="M361 283.533C325.107 283.813 296 312.224 296 347.138C296 347.403 296.032 347.66 296.04 347.925H361V283.533Z" fill="url(#paint12_linear)"/>
<path fill-rule="evenodd" clip-rule="evenodd" d="M799 229.981H909V13.028H799V229.981Z" fill="url(#paint13_linear)"/>
<path fill-rule="evenodd" clip-rule="evenodd" d="M908.798 339.06H1128.11V121.891H908.798V339.06Z" fill="url(#paint14_linear)"/>
<path opacity="0.4" fill-rule="evenodd" clip-rule="evenodd" d="M361 338.953H470V229.981H361V338.953Z" fill="url(#paint15_linear)"/>
<path opacity="0.4" fill-rule="evenodd" clip-rule="evenodd" d="M470 338.953H580V229.981H470V338.953Z" fill="url(#paint16_linear)"/>
<path fill-rule="evenodd" clip-rule="evenodd" d="M799 338.953H909V229.981H799V338.953Z" fill="url(#paint17_linear)"/>
<path fill-rule="evenodd" clip-rule="evenodd" d="M1128 338.953C1127.42 219.035 1030.45 122 910.898 122C910.262 122 909.627 122.016 909 122.023V338.953H1128Z" fill="url(#paint18_linear)"/>
<path fill-rule="evenodd" clip-rule="evenodd" d="M799 13.028C799.291 73.2611 847.995 122 908.039 122C908.362 122 908.677 121.992 909 121.984V13.028H799Z" fill="url(#paint19_linear)"/>
<path fill-rule="evenodd" clip-rule="evenodd" d="M689 256.729H800V229.981H689V256.729Z" fill="url(#paint20_linear)"/>
<path fill-rule="evenodd" clip-rule="evenodd" d="M689 297.346H800V271.589H689V297.346Z" fill="url(#paint21_linear)"/>
<path fill-rule="evenodd" clip-rule="evenodd" d="M688.905 338.491H800.233V312.321H688.905V338.491Z" fill="url(#paint22_linear)"/>
<path fill-rule="evenodd" clip-rule="evenodd" d="M887 284.967L854 251.776L821 284.967L854 318.15L887 284.967Z" fill="url(#paint23_linear)"/>
<path opacity="0.4" fill-rule="evenodd" clip-rule="evenodd" d="M496 313.196H554V255.738H496V313.196Z" fill="url(#paint24_linear)"/>
<path opacity="0.4" fill-rule="evenodd" clip-rule="evenodd" d="M416.004 313.196C399.987 313.196 387 300.338 387 284.471C387 268.604 399.987 255.738 416.004 255.738C432.021 255.738 445 268.604 445 284.471C445 300.338 432.021 313.196 416.004 313.196Z" fill="url(#paint25_linear)"/>
<path fill-rule="evenodd" clip-rule="evenodd" d="M83.1909 566.237L172.827 272.655L260.5 566.237H83.1909Z" fill="url(#paint26_linear)"/>
<path fill-rule="evenodd" clip-rule="evenodd" d="M1018 664.878H909L1018 249.794V664.878Z" fill="url(#paint27_linear)"/>
<path fill-rule="evenodd" clip-rule="evenodd" d="M470 229.981V122H799.244L909 229.981H470Z" fill="url(#paint28_linear)"/>
<path fill-rule="evenodd" clip-rule="evenodd" d="M361 229.981L470.5 122L580 229.981H361Z" fill="url(#paint29_linear)"/>
</g>
<g style="mix-blend-mode:overlay" opacity="0.5">
<path fill-rule="evenodd" clip-rule="evenodd" d="M909 109H1128V-145H909V109Z" fill="url(#paint30_linear)"/>
<path fill-rule="evenodd" clip-rule="evenodd" d="M361 -7C161.581 -6.76955 0 151.788 0 347.353C0 347.571 0.00650822 347.782 0.00650822 348H361V-7Z" fill="url(#paint31_linear)"/>
<path opacity="0.2" fill-rule="evenodd" clip-rule="evenodd" d="M361 63.6075C201.594 63.8795 72 190.962 72 347.14C72 347.404 72.0235 347.661 72.0235 347.925H361V63.6075Z" fill="url(#paint32_linear)"/>
<path opacity="0.4" fill-rule="evenodd" clip-rule="evenodd" d="M361 136.916C242.956 137.188 147 231.387 147 347.14C147 347.404 147.024 347.661 147.024 347.925H361V136.916Z" fill="url(#paint33_linear)"/>
<path fill-rule="evenodd" clip-rule="evenodd" d="M361 210.224C283.753 210.497 221 271.804 221 347.139C221 347.404 221.016 347.661 221.016 347.925H361V210.224Z" fill="url(#paint34_linear)"/>
<path fill-rule="evenodd" clip-rule="evenodd" d="M361 283.533C325.107 283.813 296 312.224 296 347.138C296 347.403 296.032 347.66 296.04 347.925H361V283.533Z" fill="url(#paint35_linear)"/>
<path opacity="0.3" fill-rule="evenodd" clip-rule="evenodd" d="M799 230H909V0H799V230Z" fill="url(#paint36_linear)"/>
<path fill-rule="evenodd" clip-rule="evenodd" d="M909 339H1128V109H909V339Z" fill="url(#paint37_linear)"/>
<path fill-rule="evenodd" clip-rule="evenodd" d="M1128 339H1346V-13H1128V339Z" fill="url(#paint38_linear)"/>
<path opacity="0.6" fill-rule="evenodd" clip-rule="evenodd" d="M1185 96.4579C1168.99 96.4579 1156 83.5999 1156 67.7329C1156 51.8658 1168.99 39 1185 39C1201.02 39 1214 51.8658 1214 67.7329C1214 83.5999 1201.02 96.4579 1185 96.4579Z" fill="url(#paint39_linear)"/>
<path opacity="0.4" fill-rule="evenodd" clip-rule="evenodd" d="M361 338.953H470V229.981H361V338.953Z" fill="url(#paint40_linear)"/>
<path opacity="0.4" fill-rule="evenodd" clip-rule="evenodd" d="M470 338.953H580V229.981H470V338.953Z" fill="url(#paint41_linear)"/>
<path fill-rule="evenodd" clip-rule="evenodd" d="M799 338.953H909V229.981H799V338.953Z" fill="url(#paint42_linear)"/>
<path fill-rule="evenodd" clip-rule="evenodd" d="M799 0C799.291 60.233 847.995 108.972 908.039 108.972C908.362 108.972 908.677 108.964 909 108.956V0H799Z" fill="url(#paint43_linear)"/>
<path opacity="0.3" fill-rule="evenodd" clip-rule="evenodd" d="M887 284.967L854 251.776L821 284.967L854 318.15L887 284.967Z" fill="url(#paint44_linear)"/>
<path opacity="0.4" fill-rule="evenodd" clip-rule="evenodd" d="M496 313.196H554V255.738H496V313.196Z" fill="url(#paint45_linear)"/>
<path opacity="0.4" fill-rule="evenodd" clip-rule="evenodd" d="M416.004 313.196C399.987 313.196 387 300.338 387 284.471C387 268.604 399.987 255.738 416.004 255.738C432.021 255.738 445 268.604 445 284.471C445 300.338 432.021 313.196 416.004 313.196Z" fill="url(#paint46_linear)"/>
<path fill-rule="evenodd" clip-rule="evenodd" d="M470 229.981V122H799.244L909 229.981H470Z" fill="url(#paint47_linear)"/>
<path fill-rule="evenodd" clip-rule="evenodd" d="M361 229.981L470.5 122L580 229.981H361Z" fill="url(#paint48_linear)"/>
</g>
</g>
</g>
<rect width="3.2292" height="3.24504" transform="translate(1017.11 190.821)" fill="url(#paint49_linear)"/>
</g>
<path opacity="0.4" fill-rule="evenodd" clip-rule="evenodd" d="M1218 168.191L1185 135L1152 168.191L1185 201.374L1218 168.191Z" fill="url(#paint50_linear)"/>
<path opacity="0.2" fill-rule="evenodd" clip-rule="evenodd" d="M1218 263.191L1185 230L1152 263.191L1185 296.374L1218 263.191Z" fill="url(#paint51_linear)"/>
<defs>
<linearGradient id="paint0_linear" x1="-1101.96" y1="-329.766" x2="157.642" y2="1220.77" gradientUnits="userSpaceOnUse">
<stop stop-color="#7BFFDA"/>
<stop offset="1" stop-color="#9D9BFF"/>
</linearGradient>
<linearGradient id="paint1_linear" x1="-1102.84" y1="-611.719" x2="871.065" y2="925.346" gradientUnits="userSpaceOnUse">
<stop stop-color="#7BFFDA"/>
<stop offset="1" stop-color="#9D9BFF"/>
</linearGradient>
<linearGradient id="paint2_linear" x1="-1102.84" y1="-611.719" x2="681.8" y2="767.809" gradientUnits="userSpaceOnUse">
<stop stop-color="#7BFFDA"/>
<stop offset="1" stop-color="#9D9BFF"/>
</linearGradient>
<linearGradient id="paint3_linear" x1="715.628" y1="-407.828" x2="1233.55" y2="-267.457" gradientUnits="userSpaceOnUse">
<stop stop-color="#7BFFDA"/>
<stop offset="1" stop-color="#9D9BFF"/>
</linearGradient>
<linearGradient id="paint4_linear" x1="605.628" y1="-411.715" x2="1124.2" y2="-272.451" gradientUnits="userSpaceOnUse">
<stop stop-color="#7BFFDA"/>
<stop offset="1" stop-color="#9D9BFF"/>
</linearGradient>
<linearGradient id="paint5_linear" x1="386.628" y1="-410.74" x2="904.94" y2="-271.031" gradientUnits="userSpaceOnUse">
<stop stop-color="#7BFFDA"/>
<stop offset="1" stop-color="#9D9BFF"/>
</linearGradient>
<linearGradient id="paint6_linear" x1="165.745" y1="-517.034" x2="704.175" y2="-413.06" gradientUnits="userSpaceOnUse">
<stop stop-color="#7BFFDA"/>
<stop offset="1" stop-color="#9D9BFF"/>
</linearGradient>
<linearGradient id="paint7_linear" x1="-465.628" y1="-509.176" x2="535.89" y2="-172.825" gradientUnits="userSpaceOnUse">
<stop stop-color="#7BFFDA"/>
<stop offset="1" stop-color="#9D9BFF"/>
</linearGradient>
<linearGradient id="paint8_linear" x1="-324.404" y1="-361.739" x2="505.772" y2="-82.5352" gradientUnits="userSpaceOnUse">
<stop stop-color="#7BFFDA"/>
<stop offset="1" stop-color="#9D9BFF"/>
</linearGradient>
<linearGradient id="paint9_linear" x1="-183.181" y1="-216.268" x2="476.121" y2="5.17275" gradientUnits="userSpaceOnUse">
<stop stop-color="#7BFFDA"/>
<stop offset="1" stop-color="#9D9BFF"/>
</linearGradient>
<linearGradient id="paint10_linear" x1="-41.9574" y1="-70.7965" x2="446.469" y2="92.8814" gradientUnits="userSpaceOnUse">
<stop stop-color="#7BFFDA"/>
<stop offset="1" stop-color="#9D9BFF"/>
</linearGradient>
<linearGradient id="paint11_linear" x1="97.383" y1="74.6749" x2="416.753" y2="181.966" gradientUnits="userSpaceOnUse">
<stop stop-color="#7BFFDA"/>
<stop offset="1" stop-color="#9D9BFF"/>
</linearGradient>
<linearGradient id="paint12_linear" x1="238.606" y1="220.146" x2="387.1" y2="269.676" gradientUnits="userSpaceOnUse">
<stop stop-color="#7BFFDA"/>
<stop offset="1" stop-color="#9D9BFF"/>
</linearGradient>
<linearGradient id="paint13_linear" x1="701.872" y1="-200.535" x2="973.503" y2="-155.028" gradientUnits="userSpaceOnUse">
<stop stop-color="#7BFFDA"/>
<stop offset="1" stop-color="#9D9BFF"/>
</linearGradient>
<linearGradient id="paint14_linear" x1="715.153" y1="-91.8854" x2="1216.13" y2="75.2825" gradientUnits="userSpaceOnUse">
<stop stop-color="#7BFFDA"/>
<stop offset="1" stop-color="#9D9BFF"/>
</linearGradient>
<linearGradient id="paint15_linear" x1="264.755" y1="122.712" x2="514.219" y2="205.164" gradientUnits="userSpaceOnUse">
<stop stop-color="#7BFFDA"/>
<stop offset="1" stop-color="#9D9BFF"/>
</linearGradient>
<linearGradient id="paint16_linear" x1="372.872" y1="122.712" x2="624.169" y2="206.531" gradientUnits="userSpaceOnUse">
<stop stop-color="#7BFFDA"/>
<stop offset="1" stop-color="#9D9BFF"/>
</linearGradient>
<linearGradient id="paint17_linear" x1="701.872" y1="122.712" x2="953.169" y2="206.531" gradientUnits="userSpaceOnUse">
<stop stop-color="#7BFFDA"/>
<stop offset="1" stop-color="#9D9BFF"/>
</linearGradient>
<linearGradient id="paint18_linear" x1="715.628" y1="-91.5634" x2="1215.94" y2="75.3131" gradientUnits="userSpaceOnUse">
<stop stop-color="#7BFFDA"/>
<stop offset="1" stop-color="#9D9BFF"/>
</linearGradient>
<linearGradient id="paint19_linear" x1="701.872" y1="-94.2412" x2="953.169" y2="-10.422" gradientUnits="userSpaceOnUse">
<stop stop-color="#7BFFDA"/>
<stop offset="1" stop-color="#9D9BFF"/>
</linearGradient>
<linearGradient id="paint20_linear" x1="590.989" y1="203.652" x2="688.823" y2="337.806" gradientUnits="userSpaceOnUse">
<stop stop-color="#7BFFDA"/>
<stop offset="1" stop-color="#9D9BFF"/>
</linearGradient>
<linearGradient id="paint21_linear" x1="590.989" y1="246.234" x2="684.06" y2="378.765" gradientUnits="userSpaceOnUse">
<stop stop-color="#7BFFDA"/>
<stop offset="1" stop-color="#9D9BFF"/>
</linearGradient>
<linearGradient id="paint22_linear" x1="590.605" y1="286.56" x2="685.577" y2="420.059" gradientUnits="userSpaceOnUse">
<stop stop-color="#7BFFDA"/>
<stop offset="1" stop-color="#9D9BFF"/>
</linearGradient>
<linearGradient id="paint23_linear" x1="762.723" y1="186.439" x2="913.95" y2="236.127" gradientUnits="userSpaceOnUse">
<stop stop-color="#7BFFDA"/>
<stop offset="1" stop-color="#9D9BFF"/>
</linearGradient>
<linearGradient id="paint24_linear" x1="444.787" y1="199.178" x2="577.289" y2="243.374" gradientUnits="userSpaceOnUse">
<stop stop-color="#7BFFDA"/>
<stop offset="1" stop-color="#9D9BFF"/>
</linearGradient>
<linearGradient id="paint25_linear" x1="335.787" y1="199.178" x2="468.289" y2="243.374" gradientUnits="userSpaceOnUse">
<stop stop-color="#7BFFDA"/>
<stop offset="1" stop-color="#9D9BFF"/>
</linearGradient>
<linearGradient id="paint26_linear" x1="-73.3694" y1="-16.3398" x2="359.521" y2="70.0494" gradientUnits="userSpaceOnUse">
<stop stop-color="#7BFFDA"/>
<stop offset="1" stop-color="#9D9BFF"/>
</linearGradient>
<linearGradient id="paint27_linear" x1="812.755" y1="-158.804" x2="1087.4" y2="-134.973" gradientUnits="userSpaceOnUse">
<stop stop-color="#7BFFDA"/>
<stop offset="1" stop-color="#9D9BFF"/>
</linearGradient>
<linearGradient id="paint28_linear" x1="82.3724" y1="15.7059" x2="479.742" y2="549.52" gradientUnits="userSpaceOnUse">
<stop stop-color="#7BFFDA"/>
<stop offset="1" stop-color="#9D9BFF"/>
</linearGradient>
<linearGradient id="paint29_linear" x1="167.628" y1="15.7059" x2="551.292" y2="272.82" gradientUnits="userSpaceOnUse">
<stop stop-color="#7BFFDA"/>
<stop offset="1" stop-color="#9D9BFF"/>
</linearGradient>
<linearGradient id="paint30_linear" x1="715.628" y1="-395.031" x2="1229.86" y2="-248.528" gradientUnits="userSpaceOnUse">
<stop stop-color="#7BFFDA"/>
<stop offset="1" stop-color="#9D9BFF"/>
</linearGradient>
<linearGradient id="paint31_linear" x1="-318.755" y1="-356.453" x2="504.73" y2="-79.7501" gradientUnits="userSpaceOnUse">
<stop stop-color="#7BFFDA"/>
<stop offset="1" stop-color="#9D9BFF"/>
</linearGradient>
<linearGradient id="paint32_linear" x1="75.5569" y1="69.7549" x2="415.563" y2="180.683" gradientUnits="userSpaceOnUse">
<stop stop-color="#FBFEFF"/>
<stop offset="1" stop-color="#DEE4FF"/>
</linearGradient>
<linearGradient id="paint33_linear" x1="149.634" y1="141.478" x2="401.513" y2="223.469" gradientUnits="userSpaceOnUse">
<stop stop-color="#FBFEFF"/>
<stop offset="1" stop-color="#DEE4FF"/>
</linearGradient>
<linearGradient id="paint34_linear" x1="222.723" y1="213.202" x2="387.425" y2="266.948" gradientUnits="userSpaceOnUse">
<stop stop-color="#FBFEFF"/>
<stop offset="1" stop-color="#DEE4FF"/>
</linearGradient>
<linearGradient id="paint35_linear" x1="296.8" y1="284.925" x2="373.374" y2="309.735" gradientUnits="userSpaceOnUse">
<stop stop-color="#FBFEFF"/>
<stop offset="1" stop-color="white"/>
</linearGradient>
<linearGradient id="paint36_linear" x1="701.872" y1="-226.406" x2="974.322" y2="-183.351" gradientUnits="userSpaceOnUse">
<stop stop-color="#7BFFDA"/>
<stop offset="1" stop-color="#9D9BFF"/>
</linearGradient>
<linearGradient id="paint37_linear" x1="715.628" y1="-117.406" x2="1221.52" y2="41.7607" gradientUnits="userSpaceOnUse">
<stop stop-color="#7BFFDA"/>
<stop offset="1" stop-color="#9D9BFF"/>
</linearGradient>
<linearGradient id="paint38_linear" x1="935.511" y1="-359.5" x2="1466.7" y2="-250.797" gradientUnits="userSpaceOnUse">
<stop stop-color="#7BFFDA"/>
<stop offset="1" stop-color="#D6D6FF"/>
</linearGradient>
<linearGradient id="paint39_linear" x1="1038.24" y1="-50.1642" x2="1203.99" y2="-10.0574" gradientUnits="userSpaceOnUse">
<stop stop-color="#7BFFDA"/>
<stop offset="1" stop-color="#9D9BFF"/>
</linearGradient>
<linearGradient id="paint40_linear" x1="264.755" y1="122.712" x2="514.219" y2="205.164" gradientUnits="userSpaceOnUse">
<stop stop-color="#7BFFDA"/>
<stop offset="1" stop-color="#9D9BFF"/>
</linearGradient>
<linearGradient id="paint41_linear" x1="372.872" y1="122.712" x2="624.169" y2="206.531" gradientUnits="userSpaceOnUse">
<stop stop-color="#7BFFDA"/>
<stop offset="1" stop-color="#9D9BFF"/>
</linearGradient>
<linearGradient id="paint42_linear" x1="701.872" y1="122.712" x2="953.169" y2="206.531" gradientUnits="userSpaceOnUse">
<stop stop-color="#7BFFDA"/>
<stop offset="1" stop-color="#9D9BFF"/>
</linearGradient>
<linearGradient id="paint43_linear" x1="701.872" y1="-107.269" x2="953.169" y2="-23.45" gradientUnits="userSpaceOnUse">
<stop stop-color="#7BFFDA"/>
<stop offset="1" stop-color="#9D9BFF"/>
</linearGradient>
<linearGradient id="paint44_linear" x1="821.812" y1="253.211" x2="899.783" y2="278.096" gradientUnits="userSpaceOnUse">
<stop stop-color="#FBFEFF"/>
<stop offset="1" stop-color="white"/>
</linearGradient>
<linearGradient id="paint45_linear" x1="444.787" y1="199.178" x2="577.289" y2="243.374" gradientUnits="userSpaceOnUse">
<stop stop-color="#7BFFDA"/>
<stop offset="1" stop-color="#9D9BFF"/>
</linearGradient>
<linearGradient id="paint46_linear" x1="362" y1="245" x2="455.088" y2="264.143" gradientUnits="userSpaceOnUse">
<stop stop-color="#7BFFDA"/>
<stop offset="1" stop-color="#9D9BFF"/>
</linearGradient>
<linearGradient id="paint47_linear" x1="82.3724" y1="15.7059" x2="479.742" y2="549.52" gradientUnits="userSpaceOnUse">
<stop stop-color="#7BFFDA"/>
<stop offset="1" stop-color="#D2D1FF"/>
</linearGradient>
<linearGradient id="paint48_linear" x1="167.628" y1="15.7059" x2="551.292" y2="272.82" gradientUnits="userSpaceOnUse">
<stop stop-color="#7BFFDA"/>
<stop offset="1" stop-color="#9D9BFF"/>
</linearGradient>
<linearGradient id="paint49_linear" x1="-2.85132" y1="-3.19434" x2="4.5467" y2="-0.761746" gradientUnits="userSpaceOnUse">
<stop stop-color="#7BFFDA"/>
<stop offset="1" stop-color="#9D9BFF"/>
</linearGradient>
<linearGradient id="paint50_linear" x1="1018" y1="32" x2="1206.92" y2="77.0313" gradientUnits="userSpaceOnUse">
<stop stop-color="#7BFFDA"/>
<stop offset="1" stop-color="#9D9BFF"/>
</linearGradient>
<linearGradient id="paint51_linear" x1="1018" y1="127" x2="1206.92" y2="172.031" gradientUnits="userSpaceOnUse">
<stop stop-color="#7BFFDA"/>
<stop offset="1" stop-color="#9D9BFF"/>
</linearGradient>
</defs>
</svg>
