<svg width="1248" height="335" viewBox="0 0 1248 335" fill="none" xmlns="http://www.w3.org/2000/svg">
<mask id="mask0" mask-type="alpha" maskUnits="userSpaceOnUse" x="0" y="0" width="1248" height="335">
<rect width="1248" height="335" rx="16" fill="url(#paint0_linear)"/>
</mask>
<g mask="url(#mask0)">
<rect y="-97.9999" width="1249" height="530" fill="url(#paint1_linear)"/>
<mask id="mask1" mask-type="alpha" maskUnits="userSpaceOnUse" x="0" y="-98" width="1249" height="530">
<rect y="-97.9999" width="1249" height="530" fill="url(#paint2_linear)"/>
</mask>
<g mask="url(#mask1)">
<g opacity="0.5">
<g style="mix-blend-mode:overlay" opacity="0.5">
<g opacity="0.5">
<path fill-rule="evenodd" clip-rule="evenodd" d="M1580 655.888C1576.43 475.294 1427.17 329.963 1243.51 329.963C1059.85 329.963 910.559 475.286 907 655.888H1580Z" fill="url(#paint3_linear)"/>
<path fill-rule="evenodd" clip-rule="evenodd" d="M1580 655.888C1576.43 475.294 1427.17 329.963 1243.51 329.963C1059.85 329.963 910.559 475.286 907 655.888H1580Z" fill="url(#paint4_linear)"/>
</g>
<path fill-rule="evenodd" clip-rule="evenodd" d="M141 113.009H361V-211.925H141V113.009Z" fill="url(#paint5_linear)"/>
<path fill-rule="evenodd" clip-rule="evenodd" d="M141 113.009H361V-211.925H141V113.009Z" fill="url(#paint6_linear)"/>
<path fill-rule="evenodd" clip-rule="evenodd" d="M361 -211.925V113.009H141L361 -211.925Z" fill="url(#paint7_linear)"/>
<path fill-rule="evenodd" clip-rule="evenodd" d="M909 114H1127V-153.477H909V114Z" fill="url(#paint8_linear)"/>
<path fill-rule="evenodd" clip-rule="evenodd" d="M799 114.991H1018V-154.467H799V114.991Z" fill="url(#paint9_linear)"/>
<path fill-rule="evenodd" clip-rule="evenodd" d="M799 114.991H1018V-154.467H799V114.991Z" fill="url(#paint10_linear)"/>
<path fill-rule="evenodd" clip-rule="evenodd" d="M580 114H799V-154.467H580V114Z" fill="url(#paint11_linear)"/>
<path fill-rule="evenodd" clip-rule="evenodd" d="M360 221.981H580V-154.467H360V221.981Z" fill="url(#paint12_linear)"/>
<path fill-rule="evenodd" clip-rule="evenodd" d="M360 221.981H580V-154.467H360V221.981Z" fill="url(#paint13_linear)"/>
<path fill-rule="evenodd" clip-rule="evenodd" d="M361 8C118.493 8.28039 -78 201.196 -78 439.138C-78 439.403 -77.9921 439.66 -77.9921 439.925H361V8Z" fill="url(#paint14_linear)"/>
<path fill-rule="evenodd" clip-rule="evenodd" d="M361 82.2991C160.24 82.5789 -3 242.538 -3 439.14C-3 439.404 -2.98417 439.661 -2.98417 439.925H361V82.2991Z" fill="url(#paint15_linear)"/>
<path fill-rule="evenodd" clip-rule="evenodd" d="M361 82.2991C160.24 82.5789 -3 242.538 -3 439.14C-3 439.404 -2.98417 439.661 -2.98417 439.925H361V82.2991Z" fill="url(#paint16_linear)"/>
<path fill-rule="evenodd" clip-rule="evenodd" d="M361 155.607C201.594 155.88 72 282.962 72 439.14C72 439.404 72.0235 439.661 72.0235 439.925H361V155.607Z" fill="url(#paint17_linear)"/>
<path fill-rule="evenodd" clip-rule="evenodd" d="M361 155.607C201.594 155.88 72 282.962 72 439.14C72 439.404 72.0235 439.661 72.0235 439.925H361V155.607Z" fill="url(#paint18_linear)"/>
<path fill-rule="evenodd" clip-rule="evenodd" d="M361 228.916C242.956 229.188 147 323.387 147 439.14C147 439.404 147.024 439.661 147.024 439.925H361V228.916Z" fill="url(#paint19_linear)"/>
<path fill-rule="evenodd" clip-rule="evenodd" d="M361 302.224C283.753 302.497 221 363.804 221 439.139C221 439.404 221.016 439.661 221.016 439.925H361V302.224Z" fill="url(#paint20_linear)"/>
<path fill-rule="evenodd" clip-rule="evenodd" d="M799 221.981H909V5.02805H799V221.981Z" fill="url(#paint21_linear)"/>
<path fill-rule="evenodd" clip-rule="evenodd" d="M799 221.981H909V5.02805H799V221.981Z" fill="url(#paint22_linear)"/>
<path fill-rule="evenodd" clip-rule="evenodd" d="M908.798 331.06H1128.11V113.891H908.798V331.06Z" fill="url(#paint23_linear)"/>
<path fill-rule="evenodd" clip-rule="evenodd" d="M361 439.925H580V330.953H361V439.925Z" fill="url(#paint24_linear)"/>
<path fill-rule="evenodd" clip-rule="evenodd" d="M361 439.925H580V330.953H361V439.925Z" fill="url(#paint25_linear)"/>
<g opacity="0.4">
<path fill-rule="evenodd" clip-rule="evenodd" d="M361 330.953H470V221.981H361V330.953Z" fill="url(#paint26_linear)"/>
<path fill-rule="evenodd" clip-rule="evenodd" d="M361 330.953H470V221.981H361V330.953Z" fill="url(#paint27_linear)"/>
</g>
<path opacity="0.4" fill-rule="evenodd" clip-rule="evenodd" d="M470 330.953H580V221.981H470V330.953Z" fill="url(#paint28_linear)"/>
<path fill-rule="evenodd" clip-rule="evenodd" d="M799 330.953H909V221.981H799V330.953Z" fill="url(#paint29_linear)"/>
<path fill-rule="evenodd" clip-rule="evenodd" d="M580 439.925H689V330.953H580V439.925Z" fill="url(#paint30_linear)"/>
<path fill-rule="evenodd" clip-rule="evenodd" d="M799 439.925H909V330.953H799V439.925Z" fill="url(#paint31_linear)"/>
<path fill-rule="evenodd" clip-rule="evenodd" d="M799 439.925H909V330.953H799V439.925Z" fill="url(#paint32_linear)"/>
<path fill-rule="evenodd" clip-rule="evenodd" d="M1128 330.953C1127.42 211.035 1030.45 114 910.898 114C910.262 114 909.627 114.016 909 114.023V330.953H1128Z" fill="url(#paint33_linear)"/>
<path fill-rule="evenodd" clip-rule="evenodd" d="M1128 330.953C1127.42 211.035 1030.45 114 910.898 114C910.262 114 909.627 114.016 909 114.023V330.953H1128Z" fill="url(#paint34_linear)"/>
<path fill-rule="evenodd" clip-rule="evenodd" d="M799 5.02805C799.291 65.2611 847.995 114 908.039 114C908.362 114 908.677 113.992 909 113.984V5.02805H799Z" fill="url(#paint35_linear)"/>
<path fill-rule="evenodd" clip-rule="evenodd" d="M909 439.925H1128V330.953H909V439.925Z" fill="url(#paint36_linear)"/>
<path fill-rule="evenodd" clip-rule="evenodd" d="M909 439.925H1128V330.953H909V439.925Z" fill="url(#paint37_linear)"/>
<path fill-rule="evenodd" clip-rule="evenodd" d="M909 356.71H1128V330.953H909V356.71Z" fill="#7479FF"/>
<path fill-rule="evenodd" clip-rule="evenodd" d="M689 248.729H800V221.981H689V248.729Z" fill="#7479FF"/>
<path fill-rule="evenodd" clip-rule="evenodd" d="M689 289.346H800V263.589H689V289.346Z" fill="#7479FF"/>
<path fill-rule="evenodd" clip-rule="evenodd" d="M688.905 330.491H800.233V304.321H688.905V330.491Z" fill="#8185FF"/>
<path fill-rule="evenodd" clip-rule="evenodd" d="M1394.37 54.7764L1318.7 -96.1145L1242.02 54.7764H1394.37Z" fill="url(#paint38_linear)"/>
<path fill-rule="evenodd" clip-rule="evenodd" d="M887 276.967L854 243.776L821 276.967L854 310.15L887 276.967Z" fill="url(#paint39_linear)"/>
<path fill-rule="evenodd" clip-rule="evenodd" d="M887 276.967L854 243.776L821 276.967L854 310.15L887 276.967Z" fill="url(#paint40_linear)"/>
<path fill-rule="evenodd" clip-rule="evenodd" d="M580 114H799V5.02805H580V114Z" fill="url(#paint41_linear)"/>
<path fill-rule="evenodd" clip-rule="evenodd" d="M580 114H799V5.02805H580V114Z" fill="url(#paint42_linear)"/>
<path fill-rule="evenodd" clip-rule="evenodd" d="M633 115.981H746V5.02805H633V115.981Z" fill="url(#paint43_linear)"/>
<path opacity="0.4" fill-rule="evenodd" clip-rule="evenodd" d="M496 305.196H554V247.738H496V305.196Z" fill="#8185FF"/>
<path opacity="0.4" fill-rule="evenodd" clip-rule="evenodd" d="M416.004 305.196C399.987 305.196 387 292.338 387 276.471C387 260.604 399.987 247.738 416.004 247.738C432.021 247.738 445 260.604 445 276.471C445 292.338 432.021 305.196 416.004 305.196Z" fill="url(#paint44_linear)"/>
<path fill-rule="evenodd" clip-rule="evenodd" d="M-78 439.925L29.473 227.925L141 439.925H-78Z" fill="url(#paint45_linear)"/>
<path fill-rule="evenodd" clip-rule="evenodd" d="M1018 656.878H909L1018 241.794V656.878Z" fill="url(#paint46_linear)"/>
<path fill-rule="evenodd" clip-rule="evenodd" d="M1018 656.878H909L1018 241.794V656.878Z" fill="url(#paint47_linear)"/>
<path fill-rule="evenodd" clip-rule="evenodd" d="M416.008 6.01868L471 221.981H416L416.008 6.01868Z" fill="url(#paint48_linear)"/>
<path fill-rule="evenodd" clip-rule="evenodd" d="M416.008 6.01868L471 221.981H416L416.008 6.01868Z" fill="url(#paint49_linear)"/>
<path fill-rule="evenodd" clip-rule="evenodd" d="M416.013 222.469H361.189L416.02 5.75095L416.013 222.469Z" fill="url(#paint50_linear)"/>
<path fill-rule="evenodd" clip-rule="evenodd" d="M470 221.981V114H799.244L909 221.981H470Z" fill="url(#paint51_linear)"/>
<path fill-rule="evenodd" clip-rule="evenodd" d="M361 221.981L470.5 114L580 221.981H361Z" fill="url(#paint52_linear)"/>
<path fill-rule="evenodd" clip-rule="evenodd" d="M361 221.981L470.5 114L580 221.981H361Z" fill="url(#paint53_linear)"/>
</g>
<g style="mix-blend-mode:overlay" opacity="0.5">
<g opacity="0.5">
<path fill-rule="evenodd" clip-rule="evenodd" d="M1580 655.888C1576.43 475.294 1427.17 329.963 1243.51 329.963C1059.85 329.963 910.559 475.286 907 655.888H1580Z" fill="url(#paint54_linear)"/>
<path fill-rule="evenodd" clip-rule="evenodd" d="M1580 655.888C1576.43 475.294 1427.17 329.963 1243.51 329.963C1059.85 329.963 910.559 475.286 907 655.888H1580Z" fill="url(#paint55_linear)"/>
</g>
<path fill-rule="evenodd" clip-rule="evenodd" d="M141 113.009H361V-211.925H141V113.009Z" fill="url(#paint56_linear)"/>
<path fill-rule="evenodd" clip-rule="evenodd" d="M141 113.009H361V-211.925H141V113.009Z" fill="url(#paint57_linear)"/>
<path fill-rule="evenodd" clip-rule="evenodd" d="M361 -211.925V113.009H141L361 -211.925Z" fill="url(#paint58_linear)"/>
<path fill-rule="evenodd" clip-rule="evenodd" d="M909 114H1127V-153.477H909V114Z" fill="url(#paint59_linear)"/>
<path fill-rule="evenodd" clip-rule="evenodd" d="M799 114.991H1018V-154.467H799V114.991Z" fill="url(#paint60_linear)"/>
<path fill-rule="evenodd" clip-rule="evenodd" d="M799 114.991H1018V-154.467H799V114.991Z" fill="url(#paint61_linear)"/>
<path fill-rule="evenodd" clip-rule="evenodd" d="M580 114H799V-154.467H580V114Z" fill="url(#paint62_linear)"/>
<path fill-rule="evenodd" clip-rule="evenodd" d="M360 221.981H580V-154.467H360V221.981Z" fill="url(#paint63_linear)"/>
<path fill-rule="evenodd" clip-rule="evenodd" d="M360 221.981H580V-154.467H360V221.981Z" fill="url(#paint64_linear)"/>
<path fill-rule="evenodd" clip-rule="evenodd" d="M361 8C118.493 8.28039 -78 201.196 -78 439.138C-78 439.403 -77.9921 439.66 -77.9921 439.925H361V8Z" fill="url(#paint65_linear)"/>
<path fill-rule="evenodd" clip-rule="evenodd" d="M361 82.2991C160.24 82.5789 -3 242.538 -3 439.14C-3 439.404 -2.98417 439.661 -2.98417 439.925H361V82.2991Z" fill="url(#paint66_linear)"/>
<path fill-rule="evenodd" clip-rule="evenodd" d="M361 82.2991C160.24 82.5789 -3 242.538 -3 439.14C-3 439.404 -2.98417 439.661 -2.98417 439.925H361V82.2991Z" fill="url(#paint67_linear)"/>
<path fill-rule="evenodd" clip-rule="evenodd" d="M361 155.607C201.594 155.88 72 282.962 72 439.14C72 439.404 72.0235 439.661 72.0235 439.925H361V155.607Z" fill="url(#paint68_linear)"/>
<path fill-rule="evenodd" clip-rule="evenodd" d="M361 155.607C201.594 155.88 72 282.962 72 439.14C72 439.404 72.0235 439.661 72.0235 439.925H361V155.607Z" fill="url(#paint69_linear)"/>
<path fill-rule="evenodd" clip-rule="evenodd" d="M361 228.916C242.956 229.188 147 323.387 147 439.14C147 439.404 147.024 439.661 147.024 439.925H361V228.916Z" fill="url(#paint70_linear)"/>
<path fill-rule="evenodd" clip-rule="evenodd" d="M361 302.224C283.753 302.497 221 363.804 221 439.139C221 439.404 221.016 439.661 221.016 439.925H361V302.224Z" fill="url(#paint71_linear)"/>
<path fill-rule="evenodd" clip-rule="evenodd" d="M799 221.981H909V5.02805H799V221.981Z" fill="url(#paint72_linear)"/>
<path fill-rule="evenodd" clip-rule="evenodd" d="M799 221.981H909V5.02805H799V221.981Z" fill="url(#paint73_linear)"/>
<path fill-rule="evenodd" clip-rule="evenodd" d="M908.798 331.06H1128.11V113.891H908.798V331.06Z" fill="url(#paint74_linear)"/>
<path fill-rule="evenodd" clip-rule="evenodd" d="M361 439.925H580V330.953H361V439.925Z" fill="url(#paint75_linear)"/>
<path fill-rule="evenodd" clip-rule="evenodd" d="M361 439.925H580V330.953H361V439.925Z" fill="url(#paint76_linear)"/>
<g opacity="0.4">
<path fill-rule="evenodd" clip-rule="evenodd" d="M361 330.953H470V221.981H361V330.953Z" fill="url(#paint77_linear)"/>
<path fill-rule="evenodd" clip-rule="evenodd" d="M361 330.953H470V221.981H361V330.953Z" fill="url(#paint78_linear)"/>
</g>
<path opacity="0.4" fill-rule="evenodd" clip-rule="evenodd" d="M470 330.953H580V221.981H470V330.953Z" fill="url(#paint79_linear)"/>
<path fill-rule="evenodd" clip-rule="evenodd" d="M799 330.953H909V221.981H799V330.953Z" fill="url(#paint80_linear)"/>
<path fill-rule="evenodd" clip-rule="evenodd" d="M580 439.925H689V330.953H580V439.925Z" fill="url(#paint81_linear)"/>
<path fill-rule="evenodd" clip-rule="evenodd" d="M799 439.925H909V330.953H799V439.925Z" fill="url(#paint82_linear)"/>
<path fill-rule="evenodd" clip-rule="evenodd" d="M799 439.925H909V330.953H799V439.925Z" fill="url(#paint83_linear)"/>
<path fill-rule="evenodd" clip-rule="evenodd" d="M799 5.02805C799.291 65.2611 847.995 114 908.039 114C908.362 114 908.677 113.992 909 113.984V5.02805H799Z" fill="url(#paint84_linear)"/>
<path fill-rule="evenodd" clip-rule="evenodd" d="M909 439.925H1128V330.953H909V439.925Z" fill="url(#paint85_linear)"/>
<path fill-rule="evenodd" clip-rule="evenodd" d="M909 439.925H1128V330.953H909V439.925Z" fill="url(#paint86_linear)"/>
<path fill-rule="evenodd" clip-rule="evenodd" d="M689 248.729H800V221.981H689V248.729Z" fill="#7479FF"/>
<path fill-rule="evenodd" clip-rule="evenodd" d="M689 289.346H800V263.589H689V289.346Z" fill="#7479FF"/>
<path fill-rule="evenodd" clip-rule="evenodd" d="M688.905 330.491H800.233V304.321H688.905V330.491Z" fill="url(#paint87_linear)"/>
<path fill-rule="evenodd" clip-rule="evenodd" d="M1394.37 54.7764L1318.7 -96.1145L1242.02 54.7764H1394.37Z" fill="url(#paint88_linear)"/>
<path fill-rule="evenodd" clip-rule="evenodd" d="M887 276.967L854 243.776L821 276.967L854 310.15L887 276.967Z" fill="url(#paint89_linear)"/>
<path fill-rule="evenodd" clip-rule="evenodd" d="M887 276.967L854 243.776L821 276.967L854 310.15L887 276.967Z" fill="url(#paint90_linear)"/>
<path fill-rule="evenodd" clip-rule="evenodd" d="M580 114H799V5.02805H580V114Z" fill="url(#paint91_linear)"/>
<path fill-rule="evenodd" clip-rule="evenodd" d="M580 114H799V5.02805H580V114Z" fill="url(#paint92_linear)"/>
<path fill-rule="evenodd" clip-rule="evenodd" d="M633 115.981H746V5.02805H633V115.981Z" fill="url(#paint93_linear)"/>
<path opacity="0.4" fill-rule="evenodd" clip-rule="evenodd" d="M496 305.196H554V247.738H496V305.196Z" fill="#8185FF"/>
<path opacity="0.4" fill-rule="evenodd" clip-rule="evenodd" d="M416.004 305.196C399.987 305.196 387 292.338 387 276.471C387 260.604 399.987 247.738 416.004 247.738C432.021 247.738 445 260.604 445 276.471C445 292.338 432.021 305.196 416.004 305.196Z" fill="url(#paint94_linear)"/>
<path fill-rule="evenodd" clip-rule="evenodd" d="M-78 439.925L29.473 227.925L141 439.925H-78Z" fill="url(#paint95_linear)"/>
<path fill-rule="evenodd" clip-rule="evenodd" d="M1018 656.878H909L1018 241.794V656.878Z" fill="url(#paint96_linear)"/>
<path fill-rule="evenodd" clip-rule="evenodd" d="M1018 656.878H909L1018 241.794V656.878Z" fill="url(#paint97_linear)"/>
<path fill-rule="evenodd" clip-rule="evenodd" d="M416.008 6.01868L471 221.981H416L416.008 6.01868Z" fill="url(#paint98_linear)"/>
<path fill-rule="evenodd" clip-rule="evenodd" d="M416.008 6.01868L471 221.981H416L416.008 6.01868Z" fill="url(#paint99_linear)"/>
<path fill-rule="evenodd" clip-rule="evenodd" d="M416.013 222.469H361.189L416.02 5.75095L416.013 222.469Z" fill="url(#paint100_linear)"/>
<path fill-rule="evenodd" clip-rule="evenodd" d="M470 221.981V114H799.244L909 221.981H470Z" fill="url(#paint101_linear)"/>
<path fill-rule="evenodd" clip-rule="evenodd" d="M361 221.981L470.5 114L580 221.981H361Z" fill="url(#paint102_linear)"/>
<path fill-rule="evenodd" clip-rule="evenodd" d="M361 221.981L470.5 114L580 221.981H361Z" fill="url(#paint103_linear)"/>
</g>
</g>
</g>
</g>
<defs>
<linearGradient id="paint0_linear" x1="15.36" y1="7.24326" x2="683.964" y2="806.71" gradientUnits="userSpaceOnUse">
<stop stop-color="#66DAFF"/>
<stop offset="0.9999" stop-color="#80F7FF"/>
<stop offset="1" stop-color="#01E8F7"/>
</linearGradient>
<linearGradient id="paint1_linear" x1="-60" y1="4.99998" x2="400.278" y2="588.346" gradientUnits="userSpaceOnUse">
<stop stop-color="#00EFFF"/>
<stop offset="1" stop-color="#00B3EC"/>
</linearGradient>
<linearGradient id="paint2_linear" x1="404.123" y1="-41.1592" x2="579.339" y2="498.817" gradientUnits="userSpaceOnUse">
<stop stop-color="#7479FF"/>
<stop offset="1" stop-color="#898DFF"/>
</linearGradient>
<linearGradient id="paint3_linear" x1="1246.38" y1="422.148" x2="1251.8" y2="709.305" gradientUnits="userSpaceOnUse">
<stop stop-color="#01E8F7"/>
<stop offset="1" stop-color="#00C2FF"/>
</linearGradient>
<linearGradient id="paint4_linear" x1="1124.75" y1="364.917" x2="1244.28" y2="687.676" gradientUnits="userSpaceOnUse">
<stop stop-color="#8185FF"/>
<stop offset="1" stop-color="#9EA2FF"/>
</linearGradient>
<linearGradient id="paint5_linear" x1="251.941" y1="-120.02" x2="268.379" y2="165.42" gradientUnits="userSpaceOnUse">
<stop stop-color="#01E8F7"/>
<stop offset="1" stop-color="#00C2FF"/>
</linearGradient>
<linearGradient id="paint6_linear" x1="212.183" y1="-177.077" x2="393.79" y2="-16.2813" gradientUnits="userSpaceOnUse">
<stop stop-color="#8185FF"/>
<stop offset="1" stop-color="#9EA2FF"/>
</linearGradient>
<linearGradient id="paint7_linear" x1="212.183" y1="-177.077" x2="393.79" y2="-16.2813" gradientUnits="userSpaceOnUse">
<stop stop-color="#7479FF"/>
<stop offset="1" stop-color="#898DFF"/>
</linearGradient>
<linearGradient id="paint8_linear" x1="979.535" y1="-124.791" x2="1129.83" y2="35.3993" gradientUnits="userSpaceOnUse">
<stop stop-color="#7479FF"/>
<stop offset="1" stop-color="#898DFF"/>
</linearGradient>
<linearGradient id="paint9_linear" x1="909.437" y1="-78.2535" x2="920.804" y2="158.692" gradientUnits="userSpaceOnUse">
<stop stop-color="#01E8F7"/>
<stop offset="1" stop-color="#00C2FF"/>
</linearGradient>
<linearGradient id="paint10_linear" x1="869.859" y1="-125.569" x2="1021.3" y2="35.3841" gradientUnits="userSpaceOnUse">
<stop stop-color="#8185FF"/>
<stop offset="1" stop-color="#9EA2FF"/>
</linearGradient>
<linearGradient id="paint11_linear" x1="650.859" y1="-125.675" x2="801.704" y2="35.2407" gradientUnits="userSpaceOnUse">
<stop stop-color="#7479FF"/>
<stop offset="1" stop-color="#898DFF"/>
</linearGradient>
<linearGradient id="paint12_linear" x1="470.941" y1="-47.9922" x2="492.979" y2="282.327" gradientUnits="userSpaceOnUse">
<stop stop-color="#01E8F7"/>
<stop offset="1" stop-color="#00C2FF"/>
</linearGradient>
<linearGradient id="paint13_linear" x1="431.183" y1="-114.094" x2="635.704" y2="42.2101" gradientUnits="userSpaceOnUse">
<stop stop-color="#8185FF"/>
<stop offset="1" stop-color="#9EA2FF"/>
</linearGradient>
<linearGradient id="paint14_linear" x1="64.0417" y1="54.3226" x2="297.714" y2="364.905" gradientUnits="userSpaceOnUse">
<stop stop-color="#7479FF"/>
<stop offset="1" stop-color="#7175ED"/>
</linearGradient>
<linearGradient id="paint15_linear" x1="180.557" y1="183.45" x2="192.614" y2="498.188" gradientUnits="userSpaceOnUse">
<stop stop-color="#01E8F7"/>
<stop offset="1" stop-color="#00C2FF"/>
</linearGradient>
<linearGradient id="paint16_linear" x1="114.775" y1="120.653" x2="308.175" y2="378.074" gradientUnits="userSpaceOnUse">
<stop stop-color="#8185FF"/>
<stop offset="1" stop-color="#9EA2FF"/>
</linearGradient>
<linearGradient id="paint17_linear" x1="217.736" y1="236.024" x2="227.334" y2="486.244" gradientUnits="userSpaceOnUse">
<stop stop-color="#01E8F7"/>
<stop offset="1" stop-color="#00C2FF"/>
</linearGradient>
<linearGradient id="paint18_linear" x1="165.508" y1="186.1" x2="319.32" y2="390.556" gradientUnits="userSpaceOnUse">
<stop stop-color="#9EA2FF"/>
<stop offset="1" stop-color="#9EA2FF"/>
</linearGradient>
<linearGradient id="paint19_linear" x1="216.241" y1="251.546" x2="330.466" y2="403.037" gradientUnits="userSpaceOnUse">
<stop stop-color="#B6B8FF"/>
<stop offset="1" stop-color="#9EA2FF"/>
</linearGradient>
<linearGradient id="paint20_linear" x1="266.298" y1="316.992" x2="340.788" y2="416.031" gradientUnits="userSpaceOnUse">
<stop stop-color="#D8D9FF"/>
<stop offset="1" stop-color="#C5C7FF"/>
</linearGradient>
<linearGradient id="paint21_linear" x1="854.471" y1="66.3913" x2="869.089" y2="256.483" gradientUnits="userSpaceOnUse">
<stop stop-color="#01E8F7"/>
<stop offset="1" stop-color="#00C2FF"/>
</linearGradient>
<linearGradient id="paint22_linear" x1="834.591" y1="28.2956" x2="947.112" y2="102.902" gradientUnits="userSpaceOnUse">
<stop stop-color="#8185FF"/>
<stop offset="1" stop-color="#9EA2FF"/>
</linearGradient>
<linearGradient id="paint23_linear" x1="979.757" y1="137.181" x2="1097.45" y2="292.612" gradientUnits="userSpaceOnUse">
<stop stop-color="#7479FF"/>
<stop offset="1" stop-color="#7175ED"/>
</linearGradient>
<linearGradient id="paint24_linear" x1="471.437" y1="361.775" x2="473.299" y2="457.783" gradientUnits="userSpaceOnUse">
<stop stop-color="#01E8F7"/>
<stop offset="1" stop-color="#00C2FF"/>
</linearGradient>
<linearGradient id="paint25_linear" x1="431.859" y1="342.64" x2="472.646" y2="449.834" gradientUnits="userSpaceOnUse">
<stop stop-color="#8185FF"/>
<stop offset="1" stop-color="#9EA2FF"/>
</linearGradient>
<linearGradient id="paint26_linear" x1="415.966" y1="252.803" x2="419.704" y2="348.702" gradientUnits="userSpaceOnUse">
<stop stop-color="#01E8F7"/>
<stop offset="1" stop-color="#00C2FF"/>
</linearGradient>
<linearGradient id="paint27_linear" x1="396.268" y1="233.668" x2="455.476" y2="311.117" gradientUnits="userSpaceOnUse">
<stop stop-color="#8185FF"/>
<stop offset="1" stop-color="#9EA2FF"/>
</linearGradient>
<linearGradient id="paint28_linear" x1="505.591" y1="233.668" x2="564.656" y2="311.637" gradientUnits="userSpaceOnUse">
<stop stop-color="#B6B8FF"/>
<stop offset="1" stop-color="#9EA2FF"/>
</linearGradient>
<linearGradient id="paint29_linear" x1="834.591" y1="233.668" x2="893.656" y2="311.637" gradientUnits="userSpaceOnUse">
<stop stop-color="#7479FF"/>
<stop offset="1" stop-color="#7175ED"/>
</linearGradient>
<linearGradient id="paint30_linear" x1="615.268" y1="342.64" x2="674.476" y2="420.088" gradientUnits="userSpaceOnUse">
<stop stop-color="#7479FF"/>
<stop offset="1" stop-color="#7175ED"/>
</linearGradient>
<linearGradient id="paint31_linear" x1="854.471" y1="361.775" x2="858.175" y2="457.676" gradientUnits="userSpaceOnUse">
<stop stop-color="#01E8F7"/>
<stop offset="1" stop-color="#00C2FF"/>
</linearGradient>
<linearGradient id="paint32_linear" x1="834.591" y1="342.64" x2="893.656" y2="420.609" gradientUnits="userSpaceOnUse">
<stop stop-color="#8185FF"/>
<stop offset="1" stop-color="#9EA2FF"/>
</linearGradient>
<linearGradient id="paint33_linear" x1="1019.44" y1="175.363" x2="1026.81" y2="366.294" gradientUnits="userSpaceOnUse">
<stop stop-color="#01E8F7"/>
<stop offset="1" stop-color="#00C2FF"/>
</linearGradient>
<linearGradient id="paint34_linear" x1="979.859" y1="137.268" x2="1097.45" y2="292.497" gradientUnits="userSpaceOnUse">
<stop stop-color="#8185FF"/>
<stop offset="1" stop-color="#9EA2FF"/>
</linearGradient>
<linearGradient id="paint35_linear" x1="834.591" y1="16.7149" x2="893.656" y2="94.6838" gradientUnits="userSpaceOnUse">
<stop stop-color="#7479FF"/>
<stop offset="1" stop-color="#7175ED"/>
</linearGradient>
<linearGradient id="paint36_linear" x1="1019.44" y1="361.775" x2="1021.3" y2="457.783" gradientUnits="userSpaceOnUse">
<stop stop-color="#01E8F7"/>
<stop offset="1" stop-color="#00C2FF"/>
</linearGradient>
<linearGradient id="paint37_linear" x1="979.859" y1="342.64" x2="1020.65" y2="449.834" gradientUnits="userSpaceOnUse">
<stop stop-color="#9EA2FF"/>
<stop offset="1" stop-color="#9EA2FF"/>
</linearGradient>
<linearGradient id="paint38_linear" x1="1291.32" y1="-79.9319" x2="1373.1" y2="28.0485" gradientUnits="userSpaceOnUse">
<stop stop-color="#B6B8FF"/>
<stop offset="1" stop-color="#9EA2FF"/>
</linearGradient>
<linearGradient id="paint39_linear" x1="854.282" y1="262.549" x2="856.573" y2="320.959" gradientUnits="userSpaceOnUse">
<stop stop-color="#01E8F7"/>
<stop offset="1" stop-color="#00C2FF"/>
</linearGradient>
<linearGradient id="paint40_linear" x1="842.355" y1="250.894" x2="878.474" y2="297.861" gradientUnits="userSpaceOnUse">
<stop stop-color="#8185FF"/>
<stop offset="1" stop-color="#9EA2FF"/>
</linearGradient>
<linearGradient id="paint41_linear" x1="690.437" y1="35.8498" x2="692.299" y2="131.858" gradientUnits="userSpaceOnUse">
<stop stop-color="#01E8F7"/>
<stop offset="1" stop-color="#00C2FF"/>
</linearGradient>
<linearGradient id="paint42_linear" x1="650.859" y1="16.7149" x2="691.646" y2="123.908" gradientUnits="userSpaceOnUse">
<stop stop-color="#8185FF"/>
<stop offset="1" stop-color="#9EA2FF"/>
</linearGradient>
<linearGradient id="paint43_linear" x1="669.562" y1="16.9274" x2="729.554" y2="96.8273" gradientUnits="userSpaceOnUse">
<stop stop-color="#B6B8FF"/>
<stop offset="1" stop-color="#9EA2FF"/>
</linearGradient>
<linearGradient id="paint44_linear" x1="405.766" y1="253.901" x2="506.607" y2="333.008" gradientUnits="userSpaceOnUse">
<stop stop-color="#B6B8FF"/>
<stop offset="1" stop-color="#9EA2FF"/>
</linearGradient>
<linearGradient id="paint45_linear" x1="-7.14095" y1="250.662" x2="107.022" y2="404.885" gradientUnits="userSpaceOnUse">
<stop stop-color="#7479FF"/>
<stop offset="1" stop-color="#898DFF"/>
</linearGradient>
<linearGradient id="paint46_linear" x1="963.966" y1="359.197" x2="1017.12" y2="717.147" gradientUnits="userSpaceOnUse">
<stop stop-color="#01E8F7"/>
<stop offset="1" stop-color="#00C2FF"/>
</linearGradient>
<linearGradient id="paint47_linear" x1="944.268" y1="286.311" x2="1087.85" y2="335.618" gradientUnits="userSpaceOnUse">
<stop stop-color="#8185FF"/>
<stop offset="1" stop-color="#9EA2FF"/>
</linearGradient>
<linearGradient id="paint48_linear" x1="443.735" y1="67.1018" x2="472.209" y2="253.085" gradientUnits="userSpaceOnUse">
<stop stop-color="#01E8F7"/>
<stop offset="1" stop-color="#00C2FF"/>
</linearGradient>
<linearGradient id="paint49_linear" x1="433.796" y1="29.18" x2="506.703" y2="53.4612" gradientUnits="userSpaceOnUse">
<stop stop-color="#8185FF"/>
<stop offset="1" stop-color="#9EA2FF"/>
</linearGradient>
<linearGradient id="paint50_linear" x1="378.93" y1="28.9933" x2="451.709" y2="53.0728" gradientUnits="userSpaceOnUse">
<stop stop-color="#B6B8FF"/>
<stop offset="1" stop-color="#9EA2FF"/>
</linearGradient>
<linearGradient id="paint51_linear" x1="612.042" y1="125.581" x2="634.132" y2="243.023" gradientUnits="userSpaceOnUse">
<stop stop-color="#7479FF"/>
<stop offset="1" stop-color="#898DFF"/>
</linearGradient>
<linearGradient id="paint52_linear" x1="471.437" y1="144.542" x2="473.266" y2="239.678" gradientUnits="userSpaceOnUse">
<stop stop-color="#01E8F7"/>
<stop offset="1" stop-color="#00C2FF"/>
</linearGradient>
<linearGradient id="paint53_linear" x1="431.859" y1="125.581" x2="472" y2="232.043" gradientUnits="userSpaceOnUse">
<stop stop-color="#8185FF"/>
<stop offset="1" stop-color="#9EA2FF"/>
</linearGradient>
<linearGradient id="paint54_linear" x1="1246.38" y1="422.148" x2="1251.8" y2="709.305" gradientUnits="userSpaceOnUse">
<stop stop-color="#01E8F7"/>
<stop offset="1" stop-color="#00C2FF"/>
</linearGradient>
<linearGradient id="paint55_linear" x1="1124.75" y1="364.917" x2="1244.28" y2="687.676" gradientUnits="userSpaceOnUse">
<stop stop-color="#8185FF"/>
<stop offset="1" stop-color="#9EA2FF"/>
</linearGradient>
<linearGradient id="paint56_linear" x1="251.941" y1="-120.02" x2="268.379" y2="165.42" gradientUnits="userSpaceOnUse">
<stop stop-color="#01E8F7"/>
<stop offset="1" stop-color="#00C2FF"/>
</linearGradient>
<linearGradient id="paint57_linear" x1="212.183" y1="-177.077" x2="393.79" y2="-16.2813" gradientUnits="userSpaceOnUse">
<stop stop-color="#8185FF"/>
<stop offset="1" stop-color="#9EA2FF"/>
</linearGradient>
<linearGradient id="paint58_linear" x1="212.183" y1="-177.077" x2="393.79" y2="-16.2813" gradientUnits="userSpaceOnUse">
<stop stop-color="#7479FF"/>
<stop offset="1" stop-color="#898DFF"/>
</linearGradient>
<linearGradient id="paint59_linear" x1="979.535" y1="-124.791" x2="1129.83" y2="35.3993" gradientUnits="userSpaceOnUse">
<stop stop-color="#7479FF"/>
<stop offset="1" stop-color="#898DFF"/>
</linearGradient>
<linearGradient id="paint60_linear" x1="909.437" y1="-78.2535" x2="920.804" y2="158.692" gradientUnits="userSpaceOnUse">
<stop stop-color="#01E8F7"/>
<stop offset="1" stop-color="#00C2FF"/>
</linearGradient>
<linearGradient id="paint61_linear" x1="869.859" y1="-125.569" x2="1021.3" y2="35.3841" gradientUnits="userSpaceOnUse">
<stop stop-color="#8185FF"/>
<stop offset="1" stop-color="#9EA2FF"/>
</linearGradient>
<linearGradient id="paint62_linear" x1="650.859" y1="-125.675" x2="801.704" y2="35.2407" gradientUnits="userSpaceOnUse">
<stop stop-color="#7479FF"/>
<stop offset="1" stop-color="#898DFF"/>
</linearGradient>
<linearGradient id="paint63_linear" x1="470.941" y1="-47.9922" x2="492.979" y2="282.327" gradientUnits="userSpaceOnUse">
<stop stop-color="#01E8F7"/>
<stop offset="1" stop-color="#00C2FF"/>
</linearGradient>
<linearGradient id="paint64_linear" x1="431.183" y1="-114.094" x2="635.704" y2="42.2101" gradientUnits="userSpaceOnUse">
<stop stop-color="#8185FF"/>
<stop offset="1" stop-color="#9EA2FF"/>
</linearGradient>
<linearGradient id="paint65_linear" x1="64.0417" y1="54.3226" x2="297.714" y2="364.905" gradientUnits="userSpaceOnUse">
<stop stop-color="#7479FF"/>
<stop offset="1" stop-color="#7175ED"/>
</linearGradient>
<linearGradient id="paint66_linear" x1="180.557" y1="183.45" x2="192.614" y2="498.188" gradientUnits="userSpaceOnUse">
<stop stop-color="#01E8F7"/>
<stop offset="1" stop-color="#00C2FF"/>
</linearGradient>
<linearGradient id="paint67_linear" x1="114.775" y1="120.653" x2="308.175" y2="378.074" gradientUnits="userSpaceOnUse">
<stop stop-color="#8185FF"/>
<stop offset="1" stop-color="#9EA2FF"/>
</linearGradient>
<linearGradient id="paint68_linear" x1="217.736" y1="236.024" x2="227.334" y2="486.244" gradientUnits="userSpaceOnUse">
<stop stop-color="#01E8F7"/>
<stop offset="1" stop-color="#00C2FF"/>
</linearGradient>
<linearGradient id="paint69_linear" x1="165.508" y1="186.1" x2="319.32" y2="390.556" gradientUnits="userSpaceOnUse">
<stop stop-color="#B3B5FF"/>
<stop offset="1" stop-color="#CDCFFF"/>
</linearGradient>
<linearGradient id="paint70_linear" x1="216.241" y1="251.546" x2="330.466" y2="403.037" gradientUnits="userSpaceOnUse">
<stop stop-color="#DBDCFF"/>
<stop offset="1" stop-color="#C6C8FF"/>
</linearGradient>
<linearGradient id="paint71_linear" x1="266.298" y1="316.992" x2="340.788" y2="416.031" gradientUnits="userSpaceOnUse">
<stop stop-color="#EEEFFF"/>
<stop offset="1" stop-color="#DCDDFF"/>
</linearGradient>
<linearGradient id="paint72_linear" x1="854.471" y1="66.3913" x2="869.089" y2="256.483" gradientUnits="userSpaceOnUse">
<stop stop-color="#01E8F7"/>
<stop offset="1" stop-color="#00C2FF"/>
</linearGradient>
<linearGradient id="paint73_linear" x1="834.591" y1="28.2956" x2="947.112" y2="102.902" gradientUnits="userSpaceOnUse">
<stop stop-color="#8185FF"/>
<stop offset="1" stop-color="#9EA2FF"/>
</linearGradient>
<linearGradient id="paint74_linear" x1="979.757" y1="137.181" x2="1097.45" y2="292.612" gradientUnits="userSpaceOnUse">
<stop stop-color="#7479FF"/>
<stop offset="1" stop-color="#7175ED"/>
</linearGradient>
<linearGradient id="paint75_linear" x1="471.437" y1="361.775" x2="473.299" y2="457.783" gradientUnits="userSpaceOnUse">
<stop stop-color="#01E8F7"/>
<stop offset="1" stop-color="#00C2FF"/>
</linearGradient>
<linearGradient id="paint76_linear" x1="431.859" y1="342.64" x2="472.646" y2="449.834" gradientUnits="userSpaceOnUse">
<stop stop-color="#8185FF"/>
<stop offset="1" stop-color="#9EA2FF"/>
</linearGradient>
<linearGradient id="paint77_linear" x1="415.966" y1="252.803" x2="419.704" y2="348.702" gradientUnits="userSpaceOnUse">
<stop stop-color="#01E8F7"/>
<stop offset="1" stop-color="#00C2FF"/>
</linearGradient>
<linearGradient id="paint78_linear" x1="396.268" y1="233.668" x2="455.476" y2="311.117" gradientUnits="userSpaceOnUse">
<stop stop-color="#8185FF"/>
<stop offset="1" stop-color="#9EA2FF"/>
</linearGradient>
<linearGradient id="paint79_linear" x1="505.591" y1="233.668" x2="564.656" y2="311.637" gradientUnits="userSpaceOnUse">
<stop stop-color="#B6B8FF"/>
<stop offset="1" stop-color="#9EA2FF"/>
</linearGradient>
<linearGradient id="paint80_linear" x1="834.591" y1="233.668" x2="893.656" y2="311.637" gradientUnits="userSpaceOnUse">
<stop stop-color="#7479FF"/>
<stop offset="1" stop-color="#7175ED"/>
</linearGradient>
<linearGradient id="paint81_linear" x1="615.268" y1="342.64" x2="674.476" y2="420.088" gradientUnits="userSpaceOnUse">
<stop stop-color="#7479FF"/>
<stop offset="1" stop-color="#7175ED"/>
</linearGradient>
<linearGradient id="paint82_linear" x1="854.471" y1="361.775" x2="858.175" y2="457.676" gradientUnits="userSpaceOnUse">
<stop stop-color="#01E8F7"/>
<stop offset="1" stop-color="#00C2FF"/>
</linearGradient>
<linearGradient id="paint83_linear" x1="834.591" y1="342.64" x2="893.656" y2="420.609" gradientUnits="userSpaceOnUse">
<stop stop-color="#8185FF"/>
<stop offset="1" stop-color="#9EA2FF"/>
</linearGradient>
<linearGradient id="paint84_linear" x1="834.591" y1="16.7149" x2="893.656" y2="94.6838" gradientUnits="userSpaceOnUse">
<stop stop-color="#7479FF"/>
<stop offset="1" stop-color="#7175ED"/>
</linearGradient>
<linearGradient id="paint85_linear" x1="1019.44" y1="361.775" x2="1021.3" y2="457.783" gradientUnits="userSpaceOnUse">
<stop stop-color="#01E8F7"/>
<stop offset="1" stop-color="#00C2FF"/>
</linearGradient>
<linearGradient id="paint86_linear" x1="979.859" y1="342.64" x2="1020.65" y2="449.834" gradientUnits="userSpaceOnUse">
<stop stop-color="#9EA2FF"/>
<stop offset="1" stop-color="#9EA2FF"/>
</linearGradient>
<linearGradient id="paint87_linear" x1="724.926" y1="307.128" x2="730.058" y2="335.675" gradientUnits="userSpaceOnUse">
<stop stop-color="#B6B8FF"/>
<stop offset="1" stop-color="#9EA2FF"/>
</linearGradient>
<linearGradient id="paint88_linear" x1="1291.32" y1="-79.9319" x2="1373.1" y2="28.0485" gradientUnits="userSpaceOnUse">
<stop stop-color="#B6B8FF"/>
<stop offset="1" stop-color="#9EA2FF"/>
</linearGradient>
<linearGradient id="paint89_linear" x1="854.282" y1="262.549" x2="856.573" y2="320.959" gradientUnits="userSpaceOnUse">
<stop stop-color="#01E8F7"/>
<stop offset="1" stop-color="#00C2FF"/>
</linearGradient>
<linearGradient id="paint90_linear" x1="842.355" y1="250.894" x2="878.474" y2="297.861" gradientUnits="userSpaceOnUse">
<stop stop-color="#8185FF"/>
<stop offset="1" stop-color="#9EA2FF"/>
</linearGradient>
<linearGradient id="paint91_linear" x1="690.437" y1="35.8498" x2="692.299" y2="131.858" gradientUnits="userSpaceOnUse">
<stop stop-color="#01E8F7"/>
<stop offset="1" stop-color="#00C2FF"/>
</linearGradient>
<linearGradient id="paint92_linear" x1="650.859" y1="16.7149" x2="691.646" y2="123.908" gradientUnits="userSpaceOnUse">
<stop stop-color="#8185FF"/>
<stop offset="1" stop-color="#9EA2FF"/>
</linearGradient>
<linearGradient id="paint93_linear" x1="669.562" y1="16.9274" x2="729.554" y2="96.8273" gradientUnits="userSpaceOnUse">
<stop stop-color="#B6B8FF"/>
<stop offset="1" stop-color="#9EA2FF"/>
</linearGradient>
<linearGradient id="paint94_linear" x1="405.766" y1="253.901" x2="506.607" y2="333.008" gradientUnits="userSpaceOnUse">
<stop stop-color="#B6B8FF"/>
<stop offset="1" stop-color="white"/>
</linearGradient>
<linearGradient id="paint95_linear" x1="-7.14095" y1="250.662" x2="107.022" y2="404.885" gradientUnits="userSpaceOnUse">
<stop stop-color="#7479FF"/>
<stop offset="1" stop-color="#898DFF"/>
</linearGradient>
<linearGradient id="paint96_linear" x1="963.966" y1="359.197" x2="1017.12" y2="717.147" gradientUnits="userSpaceOnUse">
<stop stop-color="#01E8F7"/>
<stop offset="1" stop-color="#00C2FF"/>
</linearGradient>
<linearGradient id="paint97_linear" x1="944.268" y1="286.311" x2="1087.85" y2="335.618" gradientUnits="userSpaceOnUse">
<stop stop-color="#8185FF"/>
<stop offset="1" stop-color="#9EA2FF"/>
</linearGradient>
<linearGradient id="paint98_linear" x1="443.735" y1="67.1018" x2="472.209" y2="253.085" gradientUnits="userSpaceOnUse">
<stop stop-color="#01E8F7"/>
<stop offset="1" stop-color="#00C2FF"/>
</linearGradient>
<linearGradient id="paint99_linear" x1="433.796" y1="29.18" x2="506.703" y2="53.4612" gradientUnits="userSpaceOnUse">
<stop stop-color="#8185FF"/>
<stop offset="1" stop-color="#9EA2FF"/>
</linearGradient>
<linearGradient id="paint100_linear" x1="378.93" y1="28.9933" x2="451.709" y2="53.0728" gradientUnits="userSpaceOnUse">
<stop stop-color="white"/>
<stop offset="1" stop-color="#9EA2FF"/>
</linearGradient>
<linearGradient id="paint101_linear" x1="612.042" y1="125.581" x2="634.132" y2="243.023" gradientUnits="userSpaceOnUse">
<stop stop-color="#7479FF"/>
<stop offset="1" stop-color="#898DFF"/>
</linearGradient>
<linearGradient id="paint102_linear" x1="471.437" y1="144.542" x2="473.266" y2="239.678" gradientUnits="userSpaceOnUse">
<stop stop-color="#01E8F7"/>
<stop offset="1" stop-color="#00C2FF"/>
</linearGradient>
<linearGradient id="paint103_linear" x1="431.859" y1="125.581" x2="472" y2="232.043" gradientUnits="userSpaceOnUse">
<stop stop-color="#8185FF"/>
<stop offset="1" stop-color="#9EA2FF"/>
</linearGradient>
</defs>
</svg>
