<svg width="52" height="52" viewBox="0 0 52 52" fill="none" xmlns="http://www.w3.org/2000/svg">
<g filter="url(#filter0_i)">
<path fill-rule="evenodd" clip-rule="evenodd" d="M49 26C49 38.7025 38.7025 49 26 49C13.2975 49 3 38.7025 3 26C3 13.2975 13.2975 3 26 3C38.7025 3 49 13.2975 49 26ZM52 26C52 40.3594 40.3594 52 26 52C11.6406 52 0 40.3594 0 26C0 11.6406 11.6406 0 26 0C40.3594 0 52 11.6406 52 26ZM24.0686 40.8253C23.8322 41.1974 23.3615 41.3413 22.9567 41.1689C22.5512 40.9954 22.3333 40.555 22.441 40.1285L25.1113 29.5721H17.9311C17.6045 29.5721 17.3034 29.395 17.1458 29.1098C16.9881 28.8256 16.9987 28.4776 17.1729 28.202L27.9314 11.1745C28.1669 10.803 28.6406 10.6582 29.0433 10.8309C29.4487 11.0044 29.6667 11.4449 29.559 11.8714L26.8887 22.4277H34.0689C34.3955 22.4277 34.6966 22.6048 34.8542 22.89C35.0119 23.1743 35.0013 23.5223 34.8271 23.7979L24.0686 40.8253Z" fill="#CADEF5"/>
</g>
<defs>
<filter id="filter0_i" x="0" y="0" width="52" height="54" filterUnits="userSpaceOnUse" color-interpolation-filters="sRGB">
<feFlood flood-opacity="0" result="BackgroundImageFix"/>
<feBlend mode="normal" in="SourceGraphic" in2="BackgroundImageFix" result="shape"/>
<feColorMatrix in="SourceAlpha" type="matrix" values="0 0 0 0 0 0 0 0 0 0 0 0 0 0 0 0 0 0 127 0" result="hardAlpha"/>
<feOffset dy="2"/>
<feGaussianBlur stdDeviation="1"/>
<feComposite in2="hardAlpha" operator="arithmetic" k2="-1" k3="1"/>
<feColorMatrix type="matrix" values="0 0 0 0 0.616146 0 0 0 0 0.70986 0 0 0 0 0.8125 0 0 0 0.5 0"/>
<feBlend mode="normal" in2="shape" result="effect1_innerShadow"/>
</filter>
</defs>
</svg>
